<svg width="118" height="118" viewBox="0 0 118 118" fill="none" xmlns="http://www.w3.org/2000/svg">
<rect width="118" height="118" fill="black" fill-opacity="0.33"/>
<path d="M68.071 47.171C67.9498 47.0839 67.8091 47.028 67.6612 47.0081C67.5134 46.9882 67.3629 47.005 67.223 47.057L67.229 47.055L56.152 50.993C55.9724 51.0566 55.817 51.1743 55.7072 51.33C55.5974 51.4856 55.5386 51.6715 55.539 51.862V64.702C54.9728 64.3928 54.3381 64.2309 53.693 64.231C52.7568 64.1932 51.8426 64.5268 51.1511 65.159C50.4596 65.7913 50.0459 66.6712 50 67.607V67.615C50.0441 68.5535 50.458 69.4364 51.1511 70.0707C51.8442 70.705 52.7603 71.0391 53.699 71H53.692C54.6282 71.0378 55.5414 70.7042 56.2329 70.0719C56.9244 69.4397 57.3381 68.5598 57.384 67.624V54.733L66.614 51.51V60.483C66.0476 60.1746 65.4129 60.013 64.768 60.013H64.767C63.8308 59.9747 62.9173 60.3081 62.2259 60.9405C61.5345 61.5729 61.1211 62.4531 61.076 63.389V63.397C61.1199 64.3356 61.5336 65.2186 62.2268 65.853C62.92 66.4873 63.8362 66.8214 64.775 66.782H64.768L64.873 66.784C65.6802 66.7843 66.4644 66.5149 67.1009 66.0184C67.7374 65.522 68.1898 64.827 68.386 64.044L68.391 64.019C68.4358 63.9112 68.4593 63.7957 68.46 63.679V47.925C68.4602 47.7777 68.4251 47.6326 68.3576 47.5017C68.2901 47.3709 68.1921 47.2581 68.072 47.173L68.069 47.171H68.071Z" fill="white" fill-opacity="0.15"/>
</svg>
