<svg width="594" height="594" viewBox="0 0 594 594" fill="none" xmlns="http://www.w3.org/2000/svg">
<rect width="594" height="594" fill="#121113"/>
<path d="M151.306 164.389C151.306 165.323 151.306 166.459 151.4 167.871C151.493 168.628 151.68 169.469 151.777 170.65C151.873 171.831 151.873 173.327 152.439 176" stroke="#613A5C" stroke-width="7.94951" stroke-linecap="round"/>
<path d="M146.775 171.113C147.336 170.739 148.186 170.453 149.503 170.311C151.193 170.263 152.717 169.983 153.894 169.511C154.51 169.32 155.164 169.227 156.971 168.847" stroke="#613A5C" stroke-width="7.94951" stroke-linecap="round"/>
<path d="M380.531 252C380.531 252.935 380.531 254.07 380.625 255.482C380.718 256.24 380.905 257.081 381.001 258.262C381.098 259.443 381.098 260.938 381.664 263.611" stroke="#613A5C" stroke-width="7.94951" stroke-linecap="round"/>
<path d="M376 258.724C376.561 258.35 377.41 258.064 378.727 257.923C380.418 257.875 381.942 257.594 383.118 257.123C383.734 256.931 384.388 256.838 386.195 256.458" stroke="#613A5C" stroke-width="7.94951" stroke-linecap="round"/>
<path d="M514.027 530.468C514.17 530.468 514.816 530.897 516.114 532.121C517.697 534.06 519.012 535.598 519.913 536.248C520.385 536.54 520.886 536.754 521.402 536.976" stroke="#613A5C" stroke-width="6.63157" stroke-linecap="round"/>
<path d="M513.376 537.41C513.949 536.768 515.97 534.165 518.248 532.139C518.795 531.7 519.224 531.414 519.661 531.088C520.097 530.761 520.526 530.403 521.836 529.601" stroke="#613A5C" stroke-width="6.63157" stroke-linecap="round"/>
</svg>
