<svg width="907" height="53" viewBox="0 0 907 53" fill="none" xmlns="http://www.w3.org/2000/svg">
<path d="M125.56 39.02C125.04 39.02 124.66 38.88 124.42 38.6C124.18 38.3333 124.06 37.7933 124.06 36.98C124.06 36.2867 124.173 35.3867 124.4 34.28C124.627 33.1733 124.88 31.98 125.16 30.7C123.68 32.3533 121.973 33.4067 120.04 33.86C119.653 34.66 119.2 35.3933 118.68 36.06C118.16 36.7267 117.593 37.2667 116.98 37.68C116.38 38.08 115.753 38.28 115.1 38.28C114.287 38.28 113.587 38.0133 113 37.48C112.427 36.9467 112.14 36.1267 112.14 35.02C112.14 34.2733 112.253 33.64 112.48 33.12C112.707 32.5867 112.967 32.1867 113.26 31.92C113.02 31.4133 112.9 30.8333 112.9 30.18C112.9 29.3 113.14 28.52 113.62 27.84C114.1 27.16 114.733 26.6267 115.52 26.24C116.32 25.8533 117.187 25.66 118.12 25.66C118.64 25.66 119.133 25.7933 119.6 26.06C120.08 26.3133 120.467 26.7067 120.76 27.24C121.067 27.76 121.22 28.42 121.22 29.22C121.22 29.8867 121.12 30.62 120.92 31.42C121.867 30.86 122.8 30.0933 123.72 29.12C124.653 28.1467 125.487 27.0533 126.22 25.84C126.447 25.48 126.767 25.3 127.18 25.3C127.527 25.3 127.8 25.4067 128 25.62C128.213 25.82 128.32 26.0867 128.32 26.42C128.32 26.4867 128.28 26.7067 128.2 27.08C128.12 27.4533 128.013 27.94 127.88 28.54C127.747 29.1267 127.6 29.7733 127.44 30.48C127.293 31.1867 127.147 31.9067 127 32.64C126.853 33.3733 126.72 34.0667 126.6 34.72C126.947 34.0933 127.32 33.4267 127.72 32.72C128.133 32 128.56 31.2933 129 30.6C129.44 29.8933 129.873 29.2533 130.3 28.68C130.727 28.1067 131.12 27.6533 131.48 27.32C131.84 26.9733 132.147 26.8 132.4 26.8C132.907 26.8 133.333 26.9467 133.68 27.24C134.027 27.5333 134.2 27.8333 134.2 28.14C134.2 28.4467 134.167 28.92 134.1 29.56C134.033 30.2 133.947 30.92 133.84 31.72C133.747 32.5067 133.647 33.3 133.54 34.1C133.433 34.9 133.347 35.6267 133.28 36.28C133.213 36.92 133.18 37.4 133.18 37.72C133.18 37.9867 133.053 38.24 132.8 38.48C132.547 38.72 132.26 38.84 131.94 38.84C131.913 38.84 131.867 38.84 131.8 38.84C131.64 38.8533 131.493 38.8267 131.36 38.76C131.227 38.7067 131.113 38.5067 131.02 38.16C130.94 37.8133 130.9 37.2267 130.9 36.4C130.9 35.84 130.927 35.2267 130.98 34.56C131.033 33.8933 131.1 33.2267 131.18 32.56C131.273 31.88 131.373 31.2467 131.48 30.66C131.133 31.2333 130.747 31.8867 130.32 32.62C129.907 33.34 129.473 34.08 129.02 34.84C128.567 35.5867 128.12 36.28 127.68 36.92C127.253 37.5467 126.853 38.0533 126.48 38.44C126.12 38.8267 125.813 39.02 125.56 39.02ZM118.04 32.34C118.213 31.82 118.353 31.28 118.46 30.72C118.567 30.1467 118.62 29.5867 118.62 29.04C118.62 28.8133 118.573 28.5933 118.48 28.38C118.387 28.1667 118.227 28.06 118 28.06C117.547 28.06 117.1 28.1533 116.66 28.34C116.233 28.5267 115.88 28.7933 115.6 29.14C115.32 29.4867 115.18 29.9 115.18 30.38C115.18 30.8067 115.32 31.1667 115.6 31.46C115.893 31.7533 116.253 31.9733 116.68 32.12C117.12 32.2667 117.553 32.34 117.98 32.34C117.993 32.34 118.013 32.34 118.04 32.34ZM117.22 34.1C116.753 34.0867 116.3 34.0267 115.86 33.92C115.42 33.8 115.02 33.6333 114.66 33.42C114.62 33.6333 114.58 33.84 114.54 34.04C114.5 34.2267 114.48 34.4067 114.48 34.58C114.48 34.8733 114.527 35.14 114.62 35.38C114.727 35.6067 114.94 35.72 115.26 35.72C115.593 35.72 115.927 35.5733 116.26 35.28C116.607 34.9867 116.927 34.5933 117.22 34.1ZM165.229 37.54C165.149 38.26 164.723 38.62 163.949 38.62C163.549 38.62 163.229 38.5 162.989 38.26C162.763 38.02 162.649 37.6733 162.649 37.22C162.649 36.4467 162.683 35.62 162.749 34.74C162.829 33.8467 162.923 32.9467 163.029 32.04C163.149 31.1333 163.263 30.2667 163.369 29.44C162.889 30.1333 162.383 30.8467 161.849 31.58C161.316 32.3133 160.783 33.0267 160.249 33.72C159.716 34.4133 159.203 35.04 158.709 35.6C158.229 36.1467 157.789 36.5867 157.389 36.92C156.989 37.24 156.656 37.4 156.389 37.4C155.749 37.4 155.196 37.1667 154.729 36.7C154.263 36.22 154.029 35.6133 154.029 34.88C154.029 34.6267 154.056 34.2867 154.109 33.86C154.163 33.42 154.229 32.9533 154.309 32.46C154.389 31.9667 154.456 31.5 154.509 31.06C154.563 30.62 154.589 30.2733 154.589 30.02C154.589 30.02 154.589 30.0067 154.589 29.98C154.603 29.9133 154.589 29.88 154.549 29.88C154.496 29.88 154.349 30.06 154.109 30.42C153.869 30.7667 153.576 31.22 153.229 31.78C152.883 32.34 152.516 32.9267 152.129 33.54C151.756 34.1533 151.403 34.7267 151.069 35.26C150.749 35.7933 150.483 36.2067 150.269 36.5C149.976 36.9533 149.703 37.24 149.449 37.36C149.196 37.48 148.903 37.54 148.569 37.54C148.103 37.54 147.736 37.3867 147.469 37.08C147.216 36.76 147.089 36.3133 147.089 35.74C147.089 35.5 147.129 35.1267 147.209 34.62C147.303 34.1133 147.416 33.5533 147.549 32.94C147.683 32.3133 147.816 31.7067 147.949 31.12C148.096 30.52 148.223 30.0133 148.329 29.6C148.449 29.0533 148.616 28.6733 148.829 28.46C149.056 28.2333 149.343 28.12 149.689 28.12C150.503 28.12 150.909 28.52 150.909 29.32C150.909 29.4667 150.863 29.7067 150.769 30.04C150.676 30.3733 150.563 30.76 150.429 31.2C150.296 31.64 150.156 32.0933 150.009 32.56C149.863 33.0133 149.743 33.44 149.649 33.84C149.969 33.28 150.316 32.68 150.689 32.04C151.063 31.4 151.443 30.7733 151.829 30.16C152.229 29.5467 152.623 28.9867 153.009 28.48C153.409 27.9733 153.803 27.5733 154.189 27.28C154.576 26.9733 154.943 26.82 155.289 26.82C155.636 26.82 155.976 26.9467 156.309 27.2C156.643 27.44 156.916 27.7533 157.129 28.14C157.356 28.5133 157.469 28.9133 157.469 29.34C157.469 29.74 157.416 30.22 157.309 30.78C157.203 31.34 157.083 31.9267 156.949 32.54C156.816 33.1533 156.723 33.7533 156.669 34.34C157.123 33.8333 157.603 33.26 158.109 32.62C158.616 31.9667 159.136 31.2933 159.669 30.6C160.203 29.9067 160.723 29.2333 161.229 28.58C161.749 27.9267 162.229 27.3333 162.669 26.8C163.123 26.2667 163.523 25.8467 163.869 25.54C164.216 25.22 164.483 25.06 164.669 25.06C165.216 25.06 165.643 25.2067 165.949 25.5C166.269 25.78 166.429 26.2733 166.429 26.98C166.429 27.42 166.396 27.9933 166.329 28.7C166.276 29.4067 166.196 30.1733 166.089 31C165.996 31.8133 165.889 32.64 165.769 33.48C165.663 34.3067 165.563 35.0733 165.469 35.78C165.376 36.4867 165.296 37.0733 165.229 37.54ZM195.769 28.48C195.769 28.6667 195.516 28.8733 195.009 29.1C194.502 29.3267 193.822 29.5667 192.969 29.82C192.129 30.06 191.189 30.3 190.149 30.54C189.109 30.7667 188.056 30.9733 186.989 31.16C186.616 32.4 186.249 33.6533 185.889 34.92C185.529 36.1733 185.216 37.3467 184.949 38.44C184.882 38.7333 184.729 38.9533 184.489 39.1C184.262 39.2467 184.016 39.32 183.749 39.32C183.416 39.32 183.142 39.2267 182.929 39.04C182.716 38.8667 182.609 38.64 182.609 38.36C182.609 37.88 182.742 37.1133 183.009 36.06C183.276 35.0067 183.596 33.8133 183.969 32.48C183.356 33.36 182.736 34.1667 182.109 34.9C181.482 35.6333 180.889 36.2333 180.329 36.7C179.449 37.42 178.536 37.9933 177.589 38.42C176.656 38.86 175.722 39.08 174.789 39.08C173.296 39.08 172.209 38.7067 171.529 37.96C170.849 37.2133 170.509 36.1067 170.509 34.64C170.509 33.8 170.602 32.9667 170.789 32.14C170.989 31.3 171.256 30.5133 171.589 29.78C171.922 29.0333 172.302 28.3733 172.729 27.8C173.156 27.2267 173.602 26.78 174.069 26.46C174.536 26.1267 175.002 25.96 175.469 25.96C176.616 25.96 177.449 26.2667 177.969 26.88C178.502 27.48 178.769 28.22 178.769 29.1C178.769 29.7 178.596 30.2733 178.249 30.82C177.916 31.3667 177.469 31.8733 176.909 32.34C176.349 32.7933 175.722 33.18 175.029 33.5C174.349 33.82 173.662 34.0533 172.969 34.2C172.969 34.2933 172.969 34.3933 172.969 34.5C172.969 35.3533 173.129 35.94 173.449 36.26C173.782 36.58 174.316 36.74 175.049 36.74C176.262 36.74 177.469 36.34 178.669 35.54C179.882 34.7267 181.082 33.4867 182.269 31.82C181.722 31.86 181.249 31.88 180.849 31.88C180.276 31.88 179.902 31.7933 179.729 31.62C179.569 31.4333 179.489 31.1733 179.489 30.84C179.489 30.7333 179.536 30.6067 179.629 30.46C179.736 30.3 179.862 30.16 180.009 30.04C180.169 29.9067 180.336 29.84 180.509 29.84C181.082 29.7867 181.636 29.7333 182.169 29.68C182.716 29.6267 183.236 29.5667 183.729 29.5C184.649 27.9267 185.542 26.1067 186.409 24.04C186.782 22.9867 187.169 22.1467 187.569 21.52C187.982 20.88 188.409 20.56 188.849 20.56C189.076 20.56 189.282 20.6533 189.469 20.84C189.669 21.0133 189.769 21.2933 189.769 21.68C189.769 21.8533 189.669 22.2867 189.469 22.98C189.282 23.66 189.029 24.52 188.709 25.56C188.389 26.6 188.042 27.7333 187.669 28.96C189.816 28.6133 191.476 28.3 192.649 28.02C193.822 27.7267 194.562 27.58 194.869 27.58C195.149 27.58 195.369 27.6733 195.529 27.86C195.689 28.0467 195.769 28.2533 195.769 28.48ZM173.249 32.22C173.769 31.94 174.269 31.62 174.749 31.26C175.229 30.8867 175.622 30.5133 175.929 30.14C176.236 29.7533 176.389 29.3867 176.389 29.04C176.389 28.7333 176.329 28.5133 176.209 28.38C176.102 28.2467 175.882 28.18 175.549 28.18C175.256 28.18 174.962 28.3733 174.669 28.76C174.376 29.1467 174.102 29.6533 173.849 30.28C173.609 30.8933 173.409 31.54 173.249 32.22ZM195.079 38.76C194.653 38.76 194.266 38.64 193.919 38.4C193.573 38.1733 193.299 37.8733 193.099 37.5C192.899 37.1133 192.799 36.7 192.799 36.26C192.799 35.4333 192.979 34.6267 193.339 33.84C193.713 33.0533 194.199 32.3067 194.799 31.6C195.399 30.8933 196.053 30.2467 196.759 29.66C197.479 29.06 198.193 28.5467 198.899 28.12C199.619 27.6933 200.273 27.36 200.859 27.12C201.459 26.88 201.926 26.76 202.259 26.76C202.646 26.76 202.959 26.8467 203.199 27.02C203.453 27.18 203.579 27.4333 203.579 27.78C203.579 27.8867 203.553 27.9733 203.499 28.04C203.673 28.08 203.813 28.18 203.919 28.34C204.026 28.5 204.079 28.74 204.079 29.06C204.079 29.1933 204.046 29.54 203.979 30.1C203.913 30.66 203.839 31.34 203.759 32.14C203.693 32.94 203.659 33.7733 203.659 34.64C203.659 34.7733 203.679 34.8933 203.719 35C203.759 35.0933 203.846 35.14 203.979 35.14C204.513 35.14 205.053 35.0333 205.599 34.82C206.159 34.5933 206.699 34.32 207.219 34C207.753 33.6667 208.233 33.34 208.659 33.02C209.099 32.6867 209.466 32.4133 209.759 32.2C210.066 31.9733 210.266 31.86 210.359 31.86C210.813 31.86 211.039 32.0867 211.039 32.54C211.039 32.66 210.893 32.9133 210.599 33.3C210.319 33.6733 209.933 34.1067 209.439 34.6C208.946 35.08 208.393 35.56 207.779 36.04C207.179 36.5067 206.553 36.8933 205.899 37.2C205.259 37.5067 204.639 37.66 204.039 37.66C203.306 37.66 202.746 37.4867 202.359 37.14C201.986 36.7933 201.719 36.3267 201.559 35.74C201.413 35.14 201.333 34.4667 201.319 33.72C200.639 34.6933 199.933 35.56 199.199 36.32C198.479 37.0667 197.766 37.66 197.059 38.1C196.353 38.54 195.693 38.76 195.079 38.76ZM202.159 28.74C200.853 29.3667 199.679 30.0867 198.639 30.9C197.599 31.7 196.773 32.54 196.159 33.42C195.559 34.3 195.259 35.1467 195.259 35.96C195.259 36.1867 195.366 36.3 195.579 36.3C195.833 36.3 196.166 36.1533 196.579 35.86C197.006 35.5667 197.466 35.18 197.959 34.7C198.453 34.2067 198.946 33.66 199.439 33.06C199.933 32.4467 200.393 31.82 200.819 31.18C201.246 30.54 201.586 29.9267 201.839 29.34C201.933 29.1267 202.039 28.9267 202.159 28.74ZM212.847 38.56C212.1 38.56 211.453 38.3867 210.907 38.04C210.36 37.7067 209.94 37.2733 209.647 36.74C209.353 36.1933 209.207 35.6333 209.207 35.06C209.207 34.1 209.353 33.2133 209.647 32.4C209.94 31.5733 210.327 30.8267 210.807 30.16C211.287 29.48 211.807 28.88 212.367 28.36C212.94 27.84 213.493 27.4067 214.027 27.06C214.573 26.7 215.06 26.4333 215.487 26.26C215.913 26.0733 216.227 25.98 216.427 25.98C216.787 25.98 217.04 26.06 217.187 26.22C217.347 26.3667 217.427 26.6133 217.427 26.96C217.427 27.16 217.28 27.4 216.987 27.68C216.707 27.96 216.333 28.28 215.867 28.64C215.413 29 214.933 29.4067 214.427 29.86C213.92 30.3133 213.433 30.82 212.967 31.38C212.513 31.94 212.14 32.5533 211.847 33.22C211.567 33.8867 211.427 34.6133 211.427 35.4C211.427 35.6933 211.48 35.92 211.587 36.08C211.707 36.24 211.9 36.32 212.167 36.32C212.927 36.32 213.74 36.1867 214.607 35.92C215.487 35.64 216.36 35.2933 217.227 34.88C218.107 34.4533 218.933 34.0133 219.707 33.56C220.493 33.1067 221.167 32.7 221.727 32.34C221.953 32.18 222.147 32.0533 222.307 31.96C222.467 31.8667 222.58 31.82 222.647 31.82C223.047 31.82 223.247 32.0267 223.247 32.44C223.247 32.6533 223.087 32.94 222.767 33.3C222.393 33.7667 221.887 34.2467 221.247 34.74C220.62 35.2333 219.92 35.7067 219.147 36.16C218.387 36.6133 217.607 37.02 216.807 37.38C216.02 37.74 215.28 38.0267 214.587 38.24C213.893 38.4533 213.313 38.56 212.847 38.56ZM225.786 39C224.586 39 223.64 38.6333 222.946 37.9C222.266 37.1533 221.926 36.0933 221.926 34.72C221.926 33.9733 222.026 33.1 222.226 32.1C222.426 31.0867 222.686 30.02 223.006 28.9C223.34 27.7667 223.693 26.6467 224.066 25.54C224.453 24.4333 224.833 23.4067 225.206 22.46C225.58 21.5133 225.906 20.72 226.186 20.08C226.426 19.5867 226.766 19.34 227.206 19.34C227.486 19.34 227.713 19.4267 227.886 19.6C228.073 19.7733 228.166 20.0533 228.166 20.44C228.166 20.6267 228.073 21.0333 227.886 21.66C227.7 22.2867 227.453 23.06 227.146 23.98C226.853 24.8867 226.533 25.8667 226.186 26.92C225.853 27.9733 225.533 29.0333 225.226 30.1C224.933 31.1667 224.693 32.1733 224.506 33.12C224.32 34.0533 224.226 34.8467 224.226 35.5C224.226 35.7667 224.3 35.98 224.446 36.14C224.606 36.3 224.813 36.38 225.066 36.38C225.613 36.38 226.173 36.28 226.746 36.08C227.333 35.88 227.906 35.6267 228.466 35.32C229.04 35.0133 229.58 34.6867 230.086 34.34C230.593 33.9933 231.046 33.6667 231.446 33.36C231.86 33.04 232.193 32.7867 232.446 32.6C232.78 32.3467 233.006 32.22 233.126 32.22C233.58 32.22 233.806 32.44 233.806 32.88C233.806 32.9867 233.673 33.2067 233.406 33.54C233.18 33.8333 232.86 34.2067 232.446 34.66C232.033 35.1133 231.553 35.5933 231.006 36.1C230.473 36.5933 229.9 37.06 229.286 37.5C228.686 37.94 228.086 38.3 227.486 38.58C226.886 38.86 226.32 39 225.786 39ZM235.556 38.66C234.61 38.66 233.85 38.3267 233.276 37.66C232.703 36.98 232.416 36.0733 232.416 34.94C232.416 34.58 232.463 34.2133 232.556 33.84C232.663 33.4667 232.79 33.12 232.936 32.8C232.856 32.68 232.79 32.5267 232.736 32.34C232.696 32.14 232.676 31.9067 232.676 31.64C232.676 30.7733 232.83 29.98 233.136 29.26C233.443 28.5267 233.856 27.8933 234.376 27.36C234.896 26.8267 235.47 26.4133 236.096 26.12C236.723 25.8267 237.356 25.68 237.996 25.68C239.09 25.68 239.983 26.0467 240.676 26.78C241.383 27.5133 241.736 28.6533 241.736 30.2C241.736 30.9733 241.616 31.76 241.376 32.56C241.136 33.36 240.81 34.1267 240.396 34.86C239.996 35.58 239.53 36.2267 238.996 36.8C238.476 37.3733 237.916 37.8267 237.316 38.16C236.73 38.4933 236.143 38.66 235.556 38.66ZM235.236 31.9C235.303 32.0467 235.336 32.22 235.336 32.42C235.336 32.62 235.296 32.8267 235.216 33.04C235.136 33.2533 235.056 33.54 234.976 33.9C234.896 34.2467 234.856 34.7467 234.856 35.4C234.856 35.5733 234.876 35.72 234.916 35.84C234.97 35.9467 235.083 36 235.256 36C235.71 36 236.136 35.8533 236.536 35.56C236.95 35.2667 237.316 34.88 237.636 34.4C237.97 33.92 238.25 33.3867 238.476 32.8C238.716 32.2 238.896 31.5933 239.016 30.98C239.15 30.3533 239.216 29.7733 239.216 29.24C239.216 28.8933 239.15 28.6533 239.016 28.52C238.883 28.3867 238.65 28.32 238.316 28.32C237.863 28.32 237.396 28.4667 236.916 28.76C236.45 29.04 236.056 29.4267 235.736 29.92C235.416 30.4 235.256 30.9467 235.256 31.56C235.256 31.68 235.25 31.7933 235.236 31.9ZM251.767 38.9C251.46 38.9 251.18 38.7733 250.927 38.52C250.687 38.28 250.567 37.8733 250.567 37.3C250.567 36.8733 250.6 36.28 250.667 35.52C250.747 34.7467 250.893 33.7533 251.107 32.54C250.64 33.5 250.153 34.3533 249.647 35.1C249.14 35.8467 248.64 36.4333 248.147 36.86C247.667 37.2733 247.207 37.48 246.767 37.48C246.06 37.48 245.5 37.2667 245.087 36.84C244.673 36.4 244.467 35.58 244.467 34.38C244.467 33.8067 244.513 33.16 244.607 32.44C244.713 31.72 244.847 31 245.007 30.28C245.167 29.56 245.327 28.92 245.487 28.36C245.66 27.7867 245.813 27.36 245.947 27.08C246.053 26.84 246.187 26.6533 246.347 26.52C246.52 26.3867 246.74 26.32 247.007 26.32C247.433 26.32 247.76 26.46 247.987 26.74C248.213 27.02 248.327 27.3067 248.327 27.6C248.327 27.8267 248.273 28.1533 248.167 28.58C248.073 29.0067 247.953 29.48 247.807 30C247.673 30.52 247.533 31.0533 247.387 31.6C247.24 32.1467 247.113 32.66 247.007 33.14C246.913 33.62 246.867 34.0267 246.867 34.36C246.867 34.7733 247.027 34.98 247.347 34.98C247.533 34.98 247.773 34.8 248.067 34.44C248.373 34.08 248.693 33.6 249.027 33C249.373 32.3867 249.72 31.72 250.067 31C250.427 30.2667 250.753 29.5267 251.047 28.78C251.353 28.02 251.613 27.32 251.827 26.68C251.96 26.28 252.14 26 252.367 25.84C252.593 25.68 252.853 25.6 253.147 25.6C253.6 25.6 253.947 25.7267 254.187 25.98C254.44 26.2333 254.567 26.5933 254.567 27.06C254.567 27.2733 254.533 27.6333 254.467 28.14C254.4 28.6467 254.313 29.24 254.207 29.92C254.113 30.6 254 31.32 253.867 32.08C253.733 32.84 253.6 33.5867 253.467 34.32C253.347 35.0533 253.227 35.7267 253.107 36.34C252.987 36.94 252.887 37.42 252.807 37.78C252.673 38.3133 252.513 38.6333 252.327 38.74C252.14 38.8467 251.953 38.9 251.767 38.9ZM265.593 27.3C266.326 25.5533 266.973 23.7533 267.533 21.9C267.639 21.5267 267.793 21.24 267.993 21.04C268.206 20.84 268.499 20.74 268.873 20.74C269.179 20.74 269.413 20.8333 269.573 21.02C269.733 21.1933 269.813 21.4333 269.813 21.74C269.813 21.9933 269.706 22.4467 269.493 23.1C269.279 23.74 269.019 24.5533 268.713 25.54C268.406 26.5267 268.099 27.6667 267.793 28.96C267.486 30.2533 267.226 31.6733 267.013 33.22C266.799 34.7667 266.693 36.42 266.693 38.18C266.693 38.66 266.599 39.0533 266.413 39.36C266.239 39.68 265.933 39.84 265.493 39.84C265.013 39.84 264.659 39.6733 264.433 39.34C264.219 39.0067 264.113 38.58 264.113 38.06C264.113 37.0333 264.146 36.18 264.213 35.5C264.293 34.8067 264.373 34.2133 264.453 33.72C263.799 34.84 263.106 35.8067 262.373 36.62C261.653 37.42 260.959 38.0333 260.293 38.46C259.626 38.9 259.053 39.12 258.573 39.12C257.786 39.12 257.146 38.9 256.653 38.46C256.159 38.02 255.913 37.3533 255.913 36.46C255.913 35.7667 256.079 35.0533 256.413 34.32C256.746 33.5733 257.186 32.84 257.733 32.12C258.279 31.4 258.879 30.7267 259.533 30.1C260.199 29.46 260.866 28.9 261.533 28.42C262.199 27.9267 262.819 27.54 263.393 27.26C263.966 26.98 264.433 26.84 264.793 26.84C265.193 26.84 265.459 26.9933 265.593 27.3ZM265.133 28.38C265.053 28.4333 264.966 28.4867 264.873 28.54C264.793 28.58 264.713 28.6267 264.633 28.68C264.126 29 263.586 29.3867 263.013 29.84C262.439 30.28 261.873 30.7733 261.313 31.32C260.753 31.8533 260.239 32.4133 259.773 33C259.319 33.5733 258.953 34.1467 258.673 34.72C258.406 35.28 258.273 35.82 258.273 36.34C258.273 36.4333 258.313 36.5 258.393 36.54C258.473 36.58 258.546 36.6 258.613 36.6C259.079 36.6 259.579 36.3933 260.113 35.98C260.659 35.5667 261.213 34.9933 261.773 34.26C262.346 33.5133 262.913 32.64 263.473 31.64C264.046 30.64 264.599 29.5533 265.133 28.38ZM269.52 44.7C268.32 45.02 267.72 44.8133 267.72 44.08C267.72 43.6933 267.946 43.3733 268.4 43.12C269.066 42.7067 269.606 42.1 270.02 41.3C270.42 40.5 270.733 39.5933 270.96 38.58C271.2 37.5667 271.386 36.54 271.52 35.5C271.586 35.0733 271.713 34.7933 271.9 34.66C272.086 34.5133 272.286 34.44 272.5 34.44C272.913 34.44 273.3 34.6067 273.66 34.94C274.02 35.26 274.2 35.7933 274.2 36.54C274.2 37.5533 274.046 38.52 273.74 39.44C273.446 40.36 273.06 41.1867 272.58 41.92C272.113 42.6667 271.606 43.28 271.06 43.76C270.513 44.24 270 44.5533 269.52 44.7ZM289.337 38.76C288.911 38.76 288.524 38.64 288.177 38.4C287.831 38.1733 287.557 37.8733 287.357 37.5C287.157 37.1133 287.057 36.7 287.057 36.26C287.057 35.4333 287.237 34.6267 287.597 33.84C287.971 33.0533 288.457 32.3067 289.057 31.6C289.657 30.8933 290.311 30.2467 291.017 29.66C291.737 29.06 292.451 28.5467 293.157 28.12C293.877 27.6933 294.531 27.36 295.117 27.12C295.717 26.88 296.184 26.76 296.517 26.76C296.904 26.76 297.217 26.8467 297.457 27.02C297.711 27.18 297.837 27.4333 297.837 27.78C297.837 27.8867 297.811 27.9733 297.757 28.04C297.931 28.08 298.071 28.18 298.177 28.34C298.284 28.5 298.337 28.74 298.337 29.06C298.337 29.1933 298.304 29.54 298.237 30.1C298.171 30.66 298.097 31.34 298.017 32.14C297.951 32.94 297.917 33.7733 297.917 34.64C297.917 34.7733 297.937 34.8933 297.977 35C298.017 35.0933 298.104 35.14 298.237 35.14C298.771 35.14 299.311 35.0333 299.857 34.82C300.417 34.5933 300.957 34.32 301.477 34C302.011 33.6667 302.491 33.34 302.917 33.02C303.357 32.6867 303.724 32.4133 304.017 32.2C304.324 31.9733 304.524 31.86 304.617 31.86C305.071 31.86 305.297 32.0867 305.297 32.54C305.297 32.66 305.151 32.9133 304.857 33.3C304.577 33.6733 304.191 34.1067 303.697 34.6C303.204 35.08 302.651 35.56 302.037 36.04C301.437 36.5067 300.811 36.8933 300.157 37.2C299.517 37.5067 298.897 37.66 298.297 37.66C297.564 37.66 297.004 37.4867 296.617 37.14C296.244 36.7933 295.977 36.3267 295.817 35.74C295.671 35.14 295.591 34.4667 295.577 33.72C294.897 34.6933 294.191 35.56 293.457 36.32C292.737 37.0667 292.024 37.66 291.317 38.1C290.611 38.54 289.951 38.76 289.337 38.76ZM296.417 28.74C295.111 29.3667 293.937 30.0867 292.897 30.9C291.857 31.7 291.031 32.54 290.417 33.42C289.817 34.3 289.517 35.1467 289.517 35.96C289.517 36.1867 289.624 36.3 289.837 36.3C290.091 36.3 290.424 36.1533 290.837 35.86C291.264 35.5667 291.724 35.18 292.217 34.7C292.711 34.2067 293.204 33.66 293.697 33.06C294.191 32.4467 294.651 31.82 295.077 31.18C295.504 30.54 295.844 29.9267 296.097 29.34C296.191 29.1267 296.297 28.9267 296.417 28.74ZM315.154 39.02C314.581 39.02 314.174 38.94 313.934 38.78C313.707 38.62 313.594 38.3867 313.594 38.08C313.594 37.8133 313.687 37.5867 313.874 37.4C314.061 37.2 314.474 37 315.114 36.8C315.861 36.5733 316.567 36.3133 317.234 36.02C317.914 35.7133 318.467 35.38 318.894 35.02C319.334 34.66 319.554 34.28 319.554 33.88C319.554 33.6133 319.461 33.42 319.274 33.3C319.101 33.18 318.894 33.12 318.654 33.12C318.454 33.12 318.161 33.1533 317.774 33.22C317.401 33.2733 316.987 33.3467 316.534 33.44C316.081 33.52 315.641 33.5933 315.214 33.66C314.801 33.7133 314.447 33.74 314.154 33.74C313.461 33.74 312.947 33.5867 312.614 33.28C312.281 32.96 312.114 32.5533 312.114 32.06C312.114 31.7933 312.254 31.4267 312.534 30.96C312.814 30.4933 313.187 29.98 313.654 29.42C314.121 28.86 314.641 28.3 315.214 27.74C315.787 27.18 316.367 26.6667 316.954 26.2C317.554 25.72 318.121 25.34 318.654 25.06C319.187 24.7667 319.641 24.62 320.014 24.62C320.441 24.62 320.781 24.7533 321.034 25.02C321.301 25.2867 321.434 25.6467 321.434 26.1C321.434 26.3133 321.414 26.5467 321.374 26.8C321.334 27.04 321.234 27.26 321.074 27.46C320.914 27.6467 320.667 27.78 320.334 27.86C320.001 27.94 319.547 27.9267 318.974 27.82C318.521 28.1533 318.047 28.52 317.554 28.92C317.074 29.3067 316.621 29.7133 316.194 30.14C315.767 30.5533 315.414 30.96 315.134 31.36C315.627 31.2 316.187 31.0733 316.814 30.98C317.441 30.8733 318.074 30.82 318.714 30.82C319.487 30.82 320.114 30.96 320.594 31.24C321.087 31.5067 321.447 31.8667 321.674 32.32C321.914 32.7733 322.034 33.2733 322.034 33.82C322.034 34.4333 321.834 35.0467 321.434 35.66C321.034 36.2733 320.501 36.8333 319.834 37.34C319.167 37.8467 318.427 38.2533 317.614 38.56C316.801 38.8667 315.981 39.02 315.154 39.02ZM335.183 39.46C334.276 39.46 333.436 39.2667 332.663 38.88C331.89 38.5067 331.183 38.0133 330.543 37.4C329.903 36.7733 329.33 36.0933 328.823 35.36C328.33 34.6133 327.91 33.88 327.563 33.16C327.403 33.8933 327.256 34.52 327.123 35.04C327.003 35.56 326.903 35.9933 326.823 36.34C326.756 36.6067 326.683 36.8667 326.603 37.12C326.536 37.3733 326.43 37.58 326.283 37.74C326.136 37.9 325.93 37.98 325.663 37.98C325.09 37.98 324.723 37.7867 324.563 37.4C324.403 37 324.323 36.4933 324.323 35.88C324.323 35.3333 324.41 34.6133 324.583 33.72C324.77 32.8267 325.016 31.8267 325.323 30.72C325.63 29.6133 325.983 28.4733 326.383 27.3C326.796 26.1133 327.236 24.96 327.703 23.84C328.17 22.7067 328.636 21.68 329.103 20.76C329.396 20.2 329.656 19.8467 329.883 19.7C330.11 19.54 330.376 19.46 330.683 19.46C330.99 19.46 331.223 19.54 331.383 19.7C331.543 19.86 331.623 20.0733 331.623 20.34C331.623 20.5133 331.583 20.6867 331.503 20.86C331.423 21.0333 331.336 21.2467 331.243 21.5C330.936 22.18 330.616 22.9733 330.283 23.88C329.95 24.7733 329.63 25.7 329.323 26.66C329.016 27.6067 328.743 28.5067 328.503 29.36C329.156 28.9733 329.883 28.6 330.683 28.24C331.483 27.8667 332.29 27.5333 333.103 27.24C333.93 26.9333 334.703 26.6933 335.423 26.52C336.143 26.3467 336.75 26.26 337.243 26.26C337.63 26.26 337.923 26.3733 338.123 26.6C338.323 26.8267 338.423 27.0733 338.423 27.34C338.423 27.54 338.363 27.74 338.243 27.94C338.123 28.14 337.87 28.3133 337.483 28.46C336.203 28.8867 334.93 29.32 333.663 29.76C332.41 30.2 331.016 30.72 329.483 31.32C329.803 31.9467 330.176 32.5933 330.603 33.26C331.03 33.9133 331.49 34.5267 331.983 35.1C332.476 35.66 332.983 36.12 333.503 36.48C334.023 36.8267 334.536 37 335.043 37C335.79 37 336.51 36.8533 337.203 36.56C337.896 36.2533 338.536 35.8867 339.123 35.46C339.71 35.02 340.223 34.5933 340.663 34.18C341.116 33.7667 341.47 33.4467 341.723 33.22C341.87 33.0733 342.01 32.9667 342.143 32.9C342.29 32.8333 342.47 32.8 342.683 32.8C342.936 32.8 343.13 32.88 343.263 33.04C343.41 33.1867 343.476 33.38 343.463 33.62C343.45 33.8467 343.336 34.0733 343.123 34.3C342.95 34.4867 342.676 34.7867 342.303 35.2C341.943 35.6 341.503 36.0467 340.983 36.54C340.476 37.02 339.91 37.4867 339.283 37.94C338.67 38.38 338.016 38.74 337.323 39.02C336.63 39.3133 335.916 39.46 335.183 39.46ZM367.605 28.48C367.605 28.6667 367.352 28.8733 366.845 29.1C366.338 29.3267 365.658 29.5667 364.805 29.82C363.965 30.06 363.025 30.3 361.985 30.54C360.945 30.7667 359.892 30.9733 358.825 31.16C358.452 32.4 358.085 33.6533 357.725 34.92C357.365 36.1733 357.052 37.3467 356.785 38.44C356.718 38.7333 356.565 38.9533 356.325 39.1C356.098 39.2467 355.852 39.32 355.585 39.32C355.252 39.32 354.978 39.2267 354.765 39.04C354.552 38.8667 354.445 38.64 354.445 38.36C354.445 37.88 354.578 37.1133 354.845 36.06C355.112 35.0067 355.432 33.8133 355.805 32.48C355.192 33.36 354.572 34.1667 353.945 34.9C353.318 35.6333 352.725 36.2333 352.165 36.7C351.285 37.42 350.372 37.9933 349.425 38.42C348.492 38.86 347.558 39.08 346.625 39.08C345.132 39.08 344.045 38.7067 343.365 37.96C342.685 37.2133 342.345 36.1067 342.345 34.64C342.345 33.8 342.438 32.9667 342.625 32.14C342.825 31.3 343.092 30.5133 343.425 29.78C343.758 29.0333 344.138 28.3733 344.565 27.8C344.992 27.2267 345.438 26.78 345.905 26.46C346.372 26.1267 346.838 25.96 347.305 25.96C348.452 25.96 349.285 26.2667 349.805 26.88C350.338 27.48 350.605 28.22 350.605 29.1C350.605 29.7 350.432 30.2733 350.085 30.82C349.752 31.3667 349.305 31.8733 348.745 32.34C348.185 32.7933 347.558 33.18 346.865 33.5C346.185 33.82 345.498 34.0533 344.805 34.2C344.805 34.2933 344.805 34.3933 344.805 34.5C344.805 35.3533 344.965 35.94 345.285 36.26C345.618 36.58 346.152 36.74 346.885 36.74C348.098 36.74 349.305 36.34 350.505 35.54C351.718 34.7267 352.918 33.4867 354.105 31.82C353.558 31.86 353.085 31.88 352.685 31.88C352.112 31.88 351.738 31.7933 351.565 31.62C351.405 31.4333 351.325 31.1733 351.325 30.84C351.325 30.7333 351.372 30.6067 351.465 30.46C351.572 30.3 351.698 30.16 351.845 30.04C352.005 29.9067 352.172 29.84 352.345 29.84C352.918 29.7867 353.472 29.7333 354.005 29.68C354.552 29.6267 355.072 29.5667 355.565 29.5C356.485 27.9267 357.378 26.1067 358.245 24.04C358.618 22.9867 359.005 22.1467 359.405 21.52C359.818 20.88 360.245 20.56 360.685 20.56C360.912 20.56 361.118 20.6533 361.305 20.84C361.505 21.0133 361.605 21.2933 361.605 21.68C361.605 21.8533 361.505 22.2867 361.305 22.98C361.118 23.66 360.865 24.52 360.545 25.56C360.225 26.6 359.878 27.7333 359.505 28.96C361.652 28.6133 363.312 28.3 364.485 28.02C365.658 27.7267 366.398 27.58 366.705 27.58C366.985 27.58 367.205 27.6733 367.365 27.86C367.525 28.0467 367.605 28.2533 367.605 28.48ZM345.085 32.22C345.605 31.94 346.105 31.62 346.585 31.26C347.065 30.8867 347.458 30.5133 347.765 30.14C348.072 29.7533 348.225 29.3867 348.225 29.04C348.225 28.7333 348.165 28.5133 348.045 28.38C347.938 28.2467 347.718 28.18 347.385 28.18C347.092 28.18 346.798 28.3733 346.505 28.76C346.212 29.1467 345.938 29.6533 345.685 30.28C345.445 30.8933 345.245 31.54 345.085 32.22ZM369.155 38.56C368.409 38.56 367.762 38.3867 367.215 38.04C366.669 37.7067 366.249 37.2733 365.955 36.74C365.662 36.1933 365.515 35.6333 365.515 35.06C365.515 34.1 365.662 33.2133 365.955 32.4C366.249 31.5733 366.635 30.8267 367.115 30.16C367.595 29.48 368.115 28.88 368.675 28.36C369.249 27.84 369.802 27.4067 370.335 27.06C370.882 26.7 371.369 26.4333 371.795 26.26C372.222 26.0733 372.535 25.98 372.735 25.98C373.095 25.98 373.349 26.06 373.495 26.22C373.655 26.3667 373.735 26.6133 373.735 26.96C373.735 27.16 373.589 27.4 373.295 27.68C373.015 27.96 372.642 28.28 372.175 28.64C371.722 29 371.242 29.4067 370.735 29.86C370.229 30.3133 369.742 30.82 369.275 31.38C368.822 31.94 368.449 32.5533 368.155 33.22C367.875 33.8867 367.735 34.6133 367.735 35.4C367.735 35.6933 367.789 35.92 367.895 36.08C368.015 36.24 368.209 36.32 368.475 36.32C369.235 36.32 370.049 36.1867 370.915 35.92C371.795 35.64 372.669 35.2933 373.535 34.88C374.415 34.4533 375.242 34.0133 376.015 33.56C376.802 33.1067 377.475 32.7 378.035 32.34C378.262 32.18 378.455 32.0533 378.615 31.96C378.775 31.8667 378.889 31.82 378.955 31.82C379.355 31.82 379.555 32.0267 379.555 32.44C379.555 32.6533 379.395 32.94 379.075 33.3C378.702 33.7667 378.195 34.2467 377.555 34.74C376.929 35.2333 376.229 35.7067 375.455 36.16C374.695 36.6133 373.915 37.02 373.115 37.38C372.329 37.74 371.589 38.0267 370.895 38.24C370.202 38.4533 369.622 38.56 369.155 38.56ZM379.225 39.56C378.612 39.56 378.172 39.3867 377.905 39.04C377.638 38.6933 377.505 38.1867 377.505 37.52C377.505 36.9067 377.618 36.1067 377.845 35.12C378.085 34.12 378.398 33.0067 378.785 31.78C379.185 30.54 379.632 29.2667 380.125 27.96C380.618 26.64 381.132 25.3467 381.665 24.08C382.198 22.8 382.718 21.6267 383.225 20.56C383.465 20.0933 383.718 19.7733 383.985 19.6C384.252 19.4267 384.545 19.34 384.865 19.34C385.172 19.34 385.432 19.4267 385.645 19.6C385.858 19.76 385.965 20.02 385.965 20.38C385.965 20.46 385.858 20.7667 385.645 21.3C385.432 21.82 385.152 22.5 384.805 23.34C384.458 24.1667 384.078 25.1 383.665 26.14C383.252 27.1667 382.838 28.24 382.425 29.36C382.012 30.4667 381.638 31.56 381.305 32.64C380.972 33.72 380.705 34.72 380.505 35.64C380.972 35.0133 381.472 34.32 382.005 33.56C382.552 32.7867 383.105 32.02 383.665 31.26C384.238 30.4867 384.798 29.78 385.345 29.14C385.905 28.5 386.425 27.9867 386.905 27.6C387.385 27.2133 387.805 27.02 388.165 27.02C388.832 27.02 389.365 27.2067 389.765 27.58C390.178 27.94 390.385 28.5667 390.385 29.46C390.385 29.8733 390.305 30.3733 390.145 30.96C389.985 31.5333 389.792 32.14 389.565 32.78C389.352 33.4067 389.165 34.0133 389.005 34.6C388.845 35.1867 388.765 35.7 388.765 36.14C388.765 36.38 388.878 36.5 389.105 36.5C389.758 36.5 390.418 36.36 391.085 36.08C391.765 35.8 392.412 35.4533 393.025 35.04C393.652 34.6133 394.218 34.1933 394.725 33.78C395.245 33.3533 395.665 33 395.985 32.72C396.212 32.5067 396.418 32.3667 396.605 32.3C396.792 32.22 396.965 32.18 397.125 32.18C397.672 32.18 397.945 32.4533 397.945 33C397.945 33.1067 397.925 33.24 397.885 33.4C397.845 33.5467 397.718 33.7333 397.505 33.96C397.292 34.1867 396.972 34.5067 396.545 34.92C396.118 35.3333 395.618 35.7733 395.045 36.24C394.485 36.7067 393.872 37.1533 393.205 37.58C392.552 37.9933 391.878 38.3333 391.185 38.6C390.492 38.8667 389.818 39 389.165 39C388.178 39 387.418 38.72 386.885 38.16C386.352 37.6133 386.085 36.8667 386.085 35.92C386.085 35.2667 386.218 34.4467 386.485 33.46C386.752 32.46 387.052 31.44 387.385 30.4C386.918 30.8533 386.432 31.3933 385.925 32.02C385.418 32.6333 384.905 33.2867 384.385 33.98C383.865 34.66 383.352 35.3333 382.845 36C382.352 36.6533 381.878 37.2533 381.425 37.8C380.972 38.3333 380.558 38.76 380.185 39.08C379.812 39.4 379.492 39.56 379.225 39.56ZM423.511 37.54C423.431 38.26 423.004 38.62 422.231 38.62C421.831 38.62 421.511 38.5 421.271 38.26C421.044 38.02 420.931 37.6733 420.931 37.22C420.931 36.4467 420.964 35.62 421.031 34.74C421.111 33.8467 421.204 32.9467 421.311 32.04C421.431 31.1333 421.544 30.2667 421.651 29.44C421.171 30.1333 420.664 30.8467 420.131 31.58C419.597 32.3133 419.064 33.0267 418.531 33.72C417.997 34.4133 417.484 35.04 416.991 35.6C416.511 36.1467 416.071 36.5867 415.671 36.92C415.271 37.24 414.937 37.4 414.671 37.4C414.031 37.4 413.477 37.1667 413.011 36.7C412.544 36.22 412.311 35.6133 412.311 34.88C412.311 34.6267 412.337 34.2867 412.391 33.86C412.444 33.42 412.511 32.9533 412.591 32.46C412.671 31.9667 412.737 31.5 412.791 31.06C412.844 30.62 412.871 30.2733 412.871 30.02C412.871 30.02 412.871 30.0067 412.871 29.98C412.884 29.9133 412.871 29.88 412.831 29.88C412.777 29.88 412.631 30.06 412.391 30.42C412.151 30.7667 411.857 31.22 411.511 31.78C411.164 32.34 410.797 32.9267 410.411 33.54C410.037 34.1533 409.684 34.7267 409.351 35.26C409.031 35.7933 408.764 36.2067 408.551 36.5C408.257 36.9533 407.984 37.24 407.731 37.36C407.477 37.48 407.184 37.54 406.851 37.54C406.384 37.54 406.017 37.3867 405.751 37.08C405.497 36.76 405.371 36.3133 405.371 35.74C405.371 35.5 405.411 35.1267 405.491 34.62C405.584 34.1133 405.697 33.5533 405.831 32.94C405.964 32.3133 406.097 31.7067 406.231 31.12C406.377 30.52 406.504 30.0133 406.611 29.6C406.731 29.0533 406.897 28.6733 407.111 28.46C407.337 28.2333 407.624 28.12 407.971 28.12C408.784 28.12 409.191 28.52 409.191 29.32C409.191 29.4667 409.144 29.7067 409.051 30.04C408.957 30.3733 408.844 30.76 408.711 31.2C408.577 31.64 408.437 32.0933 408.291 32.56C408.144 33.0133 408.024 33.44 407.931 33.84C408.251 33.28 408.597 32.68 408.971 32.04C409.344 31.4 409.724 30.7733 410.111 30.16C410.511 29.5467 410.904 28.9867 411.291 28.48C411.691 27.9733 412.084 27.5733 412.471 27.28C412.857 26.9733 413.224 26.82 413.571 26.82C413.917 26.82 414.257 26.9467 414.591 27.2C414.924 27.44 415.197 27.7533 415.411 28.14C415.637 28.5133 415.751 28.9133 415.751 29.34C415.751 29.74 415.697 30.22 415.591 30.78C415.484 31.34 415.364 31.9267 415.231 32.54C415.097 33.1533 415.004 33.7533 414.951 34.34C415.404 33.8333 415.884 33.26 416.391 32.62C416.897 31.9667 417.417 31.2933 417.951 30.6C418.484 29.9067 419.004 29.2333 419.511 28.58C420.031 27.9267 420.511 27.3333 420.951 26.8C421.404 26.2667 421.804 25.8467 422.151 25.54C422.497 25.22 422.764 25.06 422.951 25.06C423.497 25.06 423.924 25.2067 424.231 25.5C424.551 25.78 424.711 26.2733 424.711 26.98C424.711 27.42 424.677 27.9933 424.611 28.7C424.557 29.4067 424.477 30.1733 424.371 31C424.277 31.8133 424.171 32.64 424.051 33.48C423.944 34.3067 423.844 35.0733 423.751 35.78C423.657 36.4867 423.577 37.0733 423.511 37.54ZM430.427 38.68C429.6 38.68 428.934 38.3933 428.427 37.82C427.92 37.2333 427.667 36.2933 427.667 35C427.667 34.1733 427.76 33.3467 427.947 32.52C428.147 31.68 428.42 30.8867 428.767 30.14C429.127 29.38 429.54 28.7067 430.007 28.12C430.487 27.5333 431.014 27.0733 431.587 26.74C432.16 26.3933 432.754 26.22 433.367 26.22C434.407 26.22 435.22 26.5 435.807 27.06C436.394 27.62 436.687 28.3333 436.687 29.2C436.687 29.8667 436.5 30.4733 436.127 31.02C435.767 31.5533 435.274 32.0333 434.647 32.46C434.02 32.8867 433.32 33.2733 432.547 33.62C431.774 33.9667 430.98 34.28 430.167 34.56C430.1 35.04 430.067 35.4667 430.067 35.84C430.067 36.0667 430.194 36.18 430.447 36.18C431.047 36.18 431.687 36.0867 432.367 35.9C433.06 35.7 433.76 35.4467 434.467 35.14C435.174 34.82 435.854 34.4933 436.507 34.16C437.16 33.8133 437.754 33.4867 438.287 33.18C438.834 32.86 439.28 32.6067 439.627 32.42C439.987 32.22 440.22 32.12 440.327 32.12C440.62 32.12 440.834 32.2067 440.967 32.38C441.1 32.5533 441.167 32.74 441.167 32.94C441.167 33.0333 440.987 33.24 440.627 33.56C440.28 33.88 439.8 34.26 439.187 34.7C438.587 35.1267 437.907 35.5733 437.147 36.04C436.4 36.4933 435.62 36.9267 434.807 37.34C434.007 37.74 433.227 38.06 432.467 38.3C431.72 38.5533 431.04 38.68 430.427 38.68ZM430.507 32.78C431.054 32.46 431.594 32.1267 432.127 31.78C432.674 31.42 433.127 31.02 433.487 30.58C433.847 30.1267 434.027 29.6 434.027 29C434.027 28.8267 433.98 28.7133 433.887 28.66C433.794 28.5933 433.66 28.56 433.487 28.56C433.02 28.56 432.594 28.7667 432.207 29.18C431.834 29.5933 431.5 30.1267 431.207 30.78C430.927 31.42 430.694 32.0867 430.507 32.78ZM440.979 38.08C440.139 38.08 439.525 37.8267 439.139 37.32C438.765 36.8 438.579 36.14 438.579 35.34C438.579 34.58 438.745 33.8467 439.079 33.14C439.412 32.42 439.859 31.7333 440.419 31.08C440.979 30.4267 441.605 29.82 442.299 29.26C442.992 28.6867 443.692 28.1733 444.399 27.72C445.119 27.2533 445.805 26.86 446.459 26.54C447.112 26.2067 447.679 25.9533 448.159 25.78C448.639 25.6067 448.985 25.52 449.199 25.52C449.425 25.52 449.612 25.58 449.759 25.7C449.919 25.8067 449.999 26.02 449.999 26.34C449.999 26.6733 449.865 26.9733 449.599 27.24C449.332 27.5067 449.005 27.7333 448.619 27.92C448.072 28.1867 447.452 28.5133 446.759 28.9C446.079 29.2733 445.392 29.7 444.699 30.18C444.005 30.66 443.365 31.1733 442.779 31.72C442.205 32.2667 441.739 32.84 441.379 33.44C441.019 34.0267 440.839 34.6267 440.839 35.24C440.839 35.3733 440.865 35.48 440.919 35.56C440.972 35.64 441.085 35.68 441.259 35.68C441.485 35.68 441.785 35.5733 442.159 35.36C442.532 35.1333 442.939 34.84 443.379 34.48C443.819 34.1067 444.259 33.7 444.699 33.26C445.139 32.8067 445.545 32.3533 445.919 31.9C446.305 31.4333 446.625 31 446.879 30.6C447.065 30.2933 447.285 30.04 447.539 29.84C447.805 29.64 448.079 29.54 448.359 29.54C448.585 29.54 448.772 29.6067 448.919 29.74C449.079 29.86 449.159 30.08 449.159 30.4C449.159 30.5067 449.152 30.76 449.139 31.16C449.125 31.5467 449.105 32.02 449.079 32.58C449.065 33.1267 449.059 33.7 449.059 34.3C449.059 34.82 449.105 35.2733 449.199 35.66C449.305 36.0333 449.525 36.22 449.859 36.22C450.259 36.22 450.672 36.08 451.099 35.8C451.525 35.5067 451.939 35.14 452.339 34.7C452.752 34.2467 453.132 33.7667 453.479 33.26C453.825 32.7533 454.119 32.2733 454.359 31.82C454.612 31.3533 454.792 30.98 454.899 30.7C455.072 29.5267 455.299 28.6067 455.579 27.94C455.859 27.26 456.165 26.78 456.499 26.5C456.845 26.22 457.179 26.08 457.499 26.08C457.859 26.08 458.159 26.1667 458.399 26.34C458.652 26.5133 458.779 26.92 458.779 27.56C458.779 27.8933 458.639 28.3933 458.359 29.06C458.079 29.7267 457.705 30.46 457.239 31.26C457.132 31.86 457.065 32.48 457.039 33.12C457.012 33.76 457.052 34.36 457.159 34.92C457.519 34.6667 457.885 34.2933 458.259 33.8C458.632 33.2933 459.005 32.7333 459.379 32.12C459.752 31.4933 460.125 30.8667 460.499 30.24C460.872 29.6 461.239 29.0133 461.599 28.48C461.972 27.9467 462.332 27.52 462.679 27.2C463.039 26.8667 463.392 26.7 463.739 26.7C464.099 26.7 464.425 26.7667 464.719 26.9C465.025 27.02 465.279 27.26 465.479 27.62C465.692 27.9667 465.852 28.4667 465.959 29.12C466.079 29.76 466.139 30.6 466.139 31.64C466.139 32.1867 466.192 32.72 466.299 33.24C466.405 33.7467 466.585 34.1667 466.839 34.5C467.092 34.82 467.445 34.98 467.899 34.98C468.632 34.98 469.285 34.86 469.859 34.62C470.432 34.3667 470.932 34.0733 471.359 33.74C471.785 33.4067 472.139 33.12 472.419 32.88C472.712 32.6267 472.939 32.5 473.099 32.5C473.365 32.5 473.565 32.58 473.699 32.74C473.845 32.8867 473.919 33.0733 473.919 33.3C473.919 33.4333 473.805 33.6667 473.579 34C473.365 34.32 473.065 34.68 472.679 35.08C472.305 35.4667 471.865 35.8467 471.359 36.22C470.865 36.58 470.339 36.88 469.779 37.12C469.219 37.36 468.652 37.48 468.079 37.48C467.039 37.48 466.179 37.2933 465.499 36.92C464.832 36.5333 464.332 35.8933 463.999 35C463.679 34.0933 463.519 32.8733 463.519 31.34C463.519 31.2467 463.519 31.16 463.519 31.08C463.519 31 463.519 30.92 463.519 30.84C463.519 30.5067 463.512 30.22 463.499 29.98C463.499 29.74 463.465 29.5533 463.399 29.42C463.185 29.78 462.925 30.2333 462.619 30.78C462.325 31.3267 461.999 31.9133 461.639 32.54C461.279 33.1667 460.892 33.7867 460.479 34.4C460.079 35.0133 459.672 35.5733 459.259 36.08C458.845 36.5867 458.432 36.9933 458.019 37.3C457.619 37.6067 457.239 37.76 456.879 37.76C456.612 37.76 456.319 37.6267 455.999 37.36C455.692 37.0933 455.432 36.7333 455.219 36.28C455.005 35.8133 454.899 35.2867 454.899 34.7C454.325 35.42 453.732 36.08 453.119 36.68C452.505 37.2667 451.899 37.7333 451.299 38.08C450.712 38.44 450.152 38.62 449.619 38.62C449.179 38.62 448.752 38.4933 448.339 38.24C447.939 37.9867 447.592 37.5333 447.299 36.88C447.005 36.2267 446.819 35.3 446.739 34.1C446.112 34.8867 445.459 35.58 444.779 36.18C444.112 36.78 443.452 37.2467 442.799 37.58C442.159 37.9133 441.552 38.08 440.979 38.08ZM474.431 39.02C473.858 39.02 473.451 38.94 473.211 38.78C472.985 38.62 472.871 38.3867 472.871 38.08C472.871 37.8133 472.965 37.5867 473.151 37.4C473.338 37.2 473.751 37 474.391 36.8C475.138 36.5733 475.845 36.3133 476.511 36.02C477.191 35.7133 477.745 35.38 478.171 35.02C478.611 34.66 478.831 34.28 478.831 33.88C478.831 33.6133 478.738 33.42 478.551 33.3C478.378 33.18 478.171 33.12 477.931 33.12C477.731 33.12 477.438 33.1533 477.051 33.22C476.678 33.2733 476.265 33.3467 475.811 33.44C475.358 33.52 474.918 33.5933 474.491 33.66C474.078 33.7133 473.725 33.74 473.431 33.74C472.738 33.74 472.225 33.5867 471.891 33.28C471.558 32.96 471.391 32.5533 471.391 32.06C471.391 31.7933 471.531 31.4267 471.811 30.96C472.091 30.4933 472.465 29.98 472.931 29.42C473.398 28.86 473.918 28.3 474.491 27.74C475.065 27.18 475.645 26.6667 476.231 26.2C476.831 25.72 477.398 25.34 477.931 25.06C478.465 24.7667 478.918 24.62 479.291 24.62C479.718 24.62 480.058 24.7533 480.311 25.02C480.578 25.2867 480.711 25.6467 480.711 26.1C480.711 26.3133 480.691 26.5467 480.651 26.8C480.611 27.04 480.511 27.26 480.351 27.46C480.191 27.6467 479.945 27.78 479.611 27.86C479.278 27.94 478.825 27.9267 478.251 27.82C477.798 28.1533 477.325 28.52 476.831 28.92C476.351 29.3067 475.898 29.7133 475.471 30.14C475.045 30.5533 474.691 30.96 474.411 31.36C474.905 31.2 475.465 31.0733 476.091 30.98C476.718 30.8733 477.351 30.82 477.991 30.82C478.765 30.82 479.391 30.96 479.871 31.24C480.365 31.5067 480.725 31.8667 480.951 32.32C481.191 32.7733 481.311 33.2733 481.311 33.82C481.311 34.4333 481.111 35.0467 480.711 35.66C480.311 36.2733 479.778 36.8333 479.111 37.34C478.445 37.8467 477.705 38.2533 476.891 38.56C476.078 38.8667 475.258 39.02 474.431 39.02ZM495.158 38.76C494.731 38.76 494.344 38.64 493.998 38.4C493.651 38.1733 493.378 37.8733 493.178 37.5C492.978 37.1133 492.878 36.7 492.878 36.26C492.878 35.4333 493.058 34.6267 493.418 33.84C493.791 33.0533 494.278 32.3067 494.877 31.6C495.478 30.8933 496.131 30.2467 496.838 29.66C497.558 29.06 498.271 28.5467 498.978 28.12C499.698 27.6933 500.351 27.36 500.938 27.12C501.538 26.88 502.004 26.76 502.338 26.76C502.724 26.76 503.038 26.8467 503.278 27.02C503.531 27.18 503.658 27.4333 503.658 27.78C503.658 27.8867 503.631 27.9733 503.578 28.04C503.751 28.08 503.891 28.18 503.998 28.34C504.104 28.5 504.158 28.74 504.158 29.06C504.158 29.1933 504.124 29.54 504.058 30.1C503.991 30.66 503.918 31.34 503.838 32.14C503.771 32.94 503.738 33.7733 503.738 34.64C503.738 34.7733 503.758 34.8933 503.798 35C503.838 35.0933 503.924 35.14 504.058 35.14C504.591 35.14 505.131 35.0333 505.678 34.82C506.238 34.5933 506.778 34.32 507.298 34C507.831 33.6667 508.311 33.34 508.738 33.02C509.178 32.6867 509.544 32.4133 509.838 32.2C510.144 31.9733 510.344 31.86 510.438 31.86C510.891 31.86 511.118 32.0867 511.118 32.54C511.118 32.66 510.971 32.9133 510.678 33.3C510.398 33.6733 510.011 34.1067 509.518 34.6C509.024 35.08 508.471 35.56 507.858 36.04C507.258 36.5067 506.631 36.8933 505.978 37.2C505.338 37.5067 504.718 37.66 504.118 37.66C503.384 37.66 502.824 37.4867 502.438 37.14C502.064 36.7933 501.798 36.3267 501.638 35.74C501.491 35.14 501.411 34.4667 501.398 33.72C500.718 34.6933 500.011 35.56 499.278 36.32C498.558 37.0667 497.844 37.66 497.138 38.1C496.431 38.54 495.771 38.76 495.158 38.76ZM502.238 28.74C500.931 29.3667 499.758 30.0867 498.718 30.9C497.678 31.7 496.851 32.54 496.238 33.42C495.638 34.3 495.338 35.1467 495.338 35.96C495.338 36.1867 495.444 36.3 495.658 36.3C495.911 36.3 496.244 36.1533 496.658 35.86C497.084 35.5667 497.544 35.18 498.038 34.7C498.531 34.2067 499.024 33.66 499.518 33.06C500.011 32.4467 500.471 31.82 500.898 31.18C501.324 30.54 501.664 29.9267 501.918 29.34C502.011 29.1267 502.118 28.9267 502.238 28.74ZM536.694 37.54C536.614 38.26 536.188 38.62 535.414 38.62C535.014 38.62 534.694 38.5 534.454 38.26C534.228 38.02 534.114 37.6733 534.114 37.22C534.114 36.4467 534.148 35.62 534.214 34.74C534.294 33.8467 534.388 32.9467 534.494 32.04C534.614 31.1333 534.728 30.2667 534.834 29.44C534.354 30.1333 533.848 30.8467 533.314 31.58C532.781 32.3133 532.248 33.0267 531.714 33.72C531.181 34.4133 530.668 35.04 530.174 35.6C529.694 36.1467 529.254 36.5867 528.854 36.92C528.454 37.24 528.121 37.4 527.854 37.4C527.214 37.4 526.661 37.1667 526.194 36.7C525.728 36.22 525.494 35.6133 525.494 34.88C525.494 34.6267 525.521 34.2867 525.574 33.86C525.628 33.42 525.694 32.9533 525.774 32.46C525.854 31.9667 525.921 31.5 525.974 31.06C526.028 30.62 526.054 30.2733 526.054 30.02C526.054 30.02 526.054 30.0067 526.054 29.98C526.068 29.9133 526.054 29.88 526.014 29.88C525.961 29.88 525.814 30.06 525.574 30.42C525.334 30.7667 525.041 31.22 524.694 31.78C524.348 32.34 523.981 32.9267 523.594 33.54C523.221 34.1533 522.868 34.7267 522.534 35.26C522.214 35.7933 521.948 36.2067 521.734 36.5C521.441 36.9533 521.168 37.24 520.914 37.36C520.661 37.48 520.368 37.54 520.034 37.54C519.568 37.54 519.201 37.3867 518.934 37.08C518.681 36.76 518.554 36.3133 518.554 35.74C518.554 35.5 518.594 35.1267 518.674 34.62C518.768 34.1133 518.881 33.5533 519.014 32.94C519.148 32.3133 519.281 31.7067 519.414 31.12C519.561 30.52 519.688 30.0133 519.794 29.6C519.914 29.0533 520.081 28.6733 520.294 28.46C520.521 28.2333 520.808 28.12 521.154 28.12C521.968 28.12 522.374 28.52 522.374 29.32C522.374 29.4667 522.328 29.7067 522.234 30.04C522.141 30.3733 522.028 30.76 521.894 31.2C521.761 31.64 521.621 32.0933 521.474 32.56C521.328 33.0133 521.208 33.44 521.114 33.84C521.434 33.28 521.781 32.68 522.154 32.04C522.528 31.4 522.908 30.7733 523.294 30.16C523.694 29.5467 524.088 28.9867 524.474 28.48C524.874 27.9733 525.268 27.5733 525.654 27.28C526.041 26.9733 526.408 26.82 526.754 26.82C527.101 26.82 527.441 26.9467 527.774 27.2C528.108 27.44 528.381 27.7533 528.594 28.14C528.821 28.5133 528.934 28.9133 528.934 29.34C528.934 29.74 528.881 30.22 528.774 30.78C528.668 31.34 528.548 31.9267 528.414 32.54C528.281 33.1533 528.188 33.7533 528.134 34.34C528.588 33.8333 529.068 33.26 529.574 32.62C530.081 31.9667 530.601 31.2933 531.134 30.6C531.668 29.9067 532.188 29.2333 532.694 28.58C533.214 27.9267 533.694 27.3333 534.134 26.8C534.588 26.2667 534.988 25.8467 535.334 25.54C535.681 25.22 535.948 25.06 536.134 25.06C536.681 25.06 537.108 25.2067 537.414 25.5C537.734 25.78 537.894 26.2733 537.894 26.98C537.894 27.42 537.861 27.9933 537.794 28.7C537.741 29.4067 537.661 30.1733 537.554 31C537.461 31.8133 537.354 32.64 537.234 33.48C537.128 34.3067 537.028 35.0733 536.934 35.78C536.841 36.4867 536.761 37.0733 536.694 37.54ZM548.173 38.9C547.866 38.9 547.586 38.7733 547.333 38.52C547.093 38.28 546.973 37.8733 546.973 37.3C546.973 36.8733 547.006 36.28 547.073 35.52C547.153 34.7467 547.3 33.7533 547.513 32.54C547.046 33.5 546.56 34.3533 546.053 35.1C545.546 35.8467 545.046 36.4333 544.553 36.86C544.073 37.2733 543.613 37.48 543.173 37.48C542.466 37.48 541.906 37.2667 541.493 36.84C541.08 36.4 540.873 35.58 540.873 34.38C540.873 33.8067 540.92 33.16 541.013 32.44C541.12 31.72 541.253 31 541.413 30.28C541.573 29.56 541.733 28.92 541.893 28.36C542.066 27.7867 542.22 27.36 542.353 27.08C542.46 26.84 542.593 26.6533 542.753 26.52C542.926 26.3867 543.146 26.32 543.413 26.32C543.84 26.32 544.166 26.46 544.393 26.74C544.62 27.02 544.733 27.3067 544.733 27.6C544.733 27.8267 544.68 28.1533 544.573 28.58C544.48 29.0067 544.36 29.48 544.213 30C544.08 30.52 543.94 31.0533 543.793 31.6C543.646 32.1467 543.52 32.66 543.413 33.14C543.32 33.62 543.273 34.0267 543.273 34.36C543.273 34.7733 543.433 34.98 543.753 34.98C543.94 34.98 544.18 34.8 544.473 34.44C544.78 34.08 545.1 33.6 545.433 33C545.78 32.3867 546.126 31.72 546.473 31C546.833 30.2667 547.16 29.5267 547.453 28.78C547.76 28.02 548.02 27.32 548.233 26.68C548.366 26.28 548.546 26 548.773 25.84C549 25.68 549.26 25.6 549.553 25.6C550.006 25.6 550.353 25.7267 550.593 25.98C550.846 26.2333 550.973 26.5933 550.973 27.06C550.973 27.2733 550.94 27.6333 550.873 28.14C550.806 28.6467 550.72 29.24 550.613 29.92C550.52 30.6 550.406 31.32 550.273 32.08C550.14 32.84 550.006 33.5867 549.873 34.32C549.753 35.0533 549.633 35.7267 549.513 36.34C549.393 36.94 549.293 37.42 549.213 37.78C549.08 38.3133 548.92 38.6333 548.733 38.74C548.546 38.8467 548.36 38.9 548.173 38.9ZM555.896 39.02C555.323 39.02 554.916 38.94 554.676 38.78C554.449 38.62 554.336 38.3867 554.336 38.08C554.336 37.8133 554.429 37.5867 554.616 37.4C554.803 37.2 555.216 37 555.856 36.8C556.603 36.5733 557.309 36.3133 557.976 36.02C558.656 35.7133 559.209 35.38 559.636 35.02C560.076 34.66 560.296 34.28 560.296 33.88C560.296 33.6133 560.203 33.42 560.016 33.3C559.843 33.18 559.636 33.12 559.396 33.12C559.196 33.12 558.903 33.1533 558.516 33.22C558.143 33.2733 557.729 33.3467 557.276 33.44C556.823 33.52 556.383 33.5933 555.956 33.66C555.543 33.7133 555.189 33.74 554.896 33.74C554.203 33.74 553.689 33.5867 553.356 33.28C553.023 32.96 552.856 32.5533 552.856 32.06C552.856 31.7933 552.996 31.4267 553.276 30.96C553.556 30.4933 553.929 29.98 554.396 29.42C554.863 28.86 555.383 28.3 555.956 27.74C556.529 27.18 557.109 26.6667 557.696 26.2C558.296 25.72 558.863 25.34 559.396 25.06C559.929 24.7667 560.383 24.62 560.756 24.62C561.183 24.62 561.523 24.7533 561.776 25.02C562.043 25.2867 562.176 25.6467 562.176 26.1C562.176 26.3133 562.156 26.5467 562.116 26.8C562.076 27.04 561.976 27.26 561.816 27.46C561.656 27.6467 561.409 27.78 561.076 27.86C560.743 27.94 560.289 27.9267 559.716 27.82C559.263 28.1533 558.789 28.52 558.296 28.92C557.816 29.3067 557.363 29.7133 556.936 30.14C556.509 30.5533 556.156 30.96 555.876 31.36C556.369 31.2 556.929 31.0733 557.556 30.98C558.183 30.8733 558.816 30.82 559.456 30.82C560.229 30.82 560.856 30.96 561.336 31.24C561.829 31.5067 562.189 31.8667 562.416 32.32C562.656 32.7733 562.776 33.2733 562.776 33.82C562.776 34.4333 562.576 35.0467 562.176 35.66C561.776 36.2733 561.243 36.8333 560.576 37.34C559.909 37.8467 559.169 38.2533 558.356 38.56C557.543 38.8667 556.723 39.02 555.896 39.02ZM566.075 38.3C565.702 38.3 565.369 38.1733 565.075 37.92C564.795 37.6667 564.655 37.2533 564.655 36.68C564.655 36.3733 564.695 35.94 564.775 35.38C564.869 34.82 564.989 34.2133 565.135 33.56C565.282 32.8933 565.442 32.2333 565.615 31.58C565.802 30.9267 565.982 30.3467 566.155 29.84C566.329 29.32 566.482 28.9333 566.615 28.68C566.789 28.3733 566.949 28.1867 567.095 28.12C567.255 28.04 567.409 28 567.555 28C567.822 28 568.069 28.08 568.295 28.24C568.535 28.4 568.655 28.7533 568.655 29.3C568.655 29.5133 568.615 29.86 568.535 30.34C568.455 30.8067 568.355 31.3533 568.235 31.98C568.115 32.6067 567.982 33.2533 567.835 33.92C567.702 34.5867 567.569 35.22 567.435 35.82C567.315 36.4067 567.215 36.9 567.135 37.3C567.069 37.6333 566.929 37.88 566.715 38.04C566.515 38.2133 566.302 38.3 566.075 38.3ZM568.375 26.02C567.935 26.02 567.529 25.8933 567.155 25.64C566.782 25.3733 566.595 24.9667 566.595 24.42C566.595 23.9667 566.709 23.6 566.935 23.32C567.162 23.04 567.429 22.84 567.735 22.72C568.055 22.5867 568.335 22.52 568.575 22.52C568.815 22.52 569.082 22.5733 569.375 22.68C569.669 22.7733 569.922 22.9533 570.135 23.22C570.362 23.4733 570.475 23.84 570.475 24.32C570.475 24.64 570.362 24.9333 570.135 25.2C569.909 25.4533 569.629 25.6533 569.295 25.8C568.975 25.9467 568.669 26.02 568.375 26.02ZM574.722 38.56C573.975 38.56 573.328 38.3867 572.782 38.04C572.235 37.7067 571.815 37.2733 571.522 36.74C571.228 36.1933 571.082 35.6333 571.082 35.06C571.082 34.1 571.228 33.2133 571.522 32.4C571.815 31.5733 572.202 30.8267 572.682 30.16C573.162 29.48 573.682 28.88 574.242 28.36C574.815 27.84 575.368 27.4067 575.902 27.06C576.448 26.7 576.935 26.4333 577.362 26.26C577.788 26.0733 578.102 25.98 578.302 25.98C578.662 25.98 578.915 26.06 579.062 26.22C579.222 26.3667 579.302 26.6133 579.302 26.96C579.302 27.16 579.155 27.4 578.862 27.68C578.582 27.96 578.208 28.28 577.742 28.64C577.288 29 576.808 29.4067 576.302 29.86C575.795 30.3133 575.308 30.82 574.842 31.38C574.388 31.94 574.015 32.5533 573.722 33.22C573.442 33.8867 573.302 34.6133 573.302 35.4C573.302 35.6933 573.355 35.92 573.462 36.08C573.582 36.24 573.775 36.32 574.042 36.32C574.802 36.32 575.615 36.1867 576.482 35.92C577.362 35.64 578.235 35.2933 579.102 34.88C579.982 34.4533 580.808 34.0133 581.582 33.56C582.368 33.1067 583.042 32.7 583.602 32.34C583.828 32.18 584.022 32.0533 584.182 31.96C584.342 31.8667 584.455 31.82 584.522 31.82C584.922 31.82 585.122 32.0267 585.122 32.44C585.122 32.6533 584.962 32.94 584.642 33.3C584.268 33.7667 583.762 34.2467 583.122 34.74C582.495 35.2333 581.795 35.7067 581.022 36.16C580.262 36.6133 579.482 37.02 578.682 37.38C577.895 37.74 577.155 38.0267 576.462 38.24C575.768 38.4533 575.188 38.56 574.722 38.56ZM584.708 38.76C584.282 38.76 583.895 38.64 583.548 38.4C583.202 38.1733 582.928 37.8733 582.728 37.5C582.528 37.1133 582.428 36.7 582.428 36.26C582.428 35.4333 582.608 34.6267 582.968 33.84C583.342 33.0533 583.828 32.3067 584.428 31.6C585.028 30.8933 585.682 30.2467 586.388 29.66C587.108 29.06 587.822 28.5467 588.528 28.12C589.248 27.6933 589.902 27.36 590.488 27.12C591.088 26.88 591.555 26.76 591.888 26.76C592.275 26.76 592.588 26.8467 592.828 27.02C593.082 27.18 593.208 27.4333 593.208 27.78C593.208 27.8867 593.182 27.9733 593.128 28.04C593.302 28.08 593.442 28.18 593.548 28.34C593.655 28.5 593.708 28.74 593.708 29.06C593.708 29.1933 593.675 29.54 593.608 30.1C593.542 30.66 593.468 31.34 593.388 32.14C593.322 32.94 593.288 33.7733 593.288 34.64C593.288 34.7733 593.308 34.8933 593.348 35C593.388 35.0933 593.475 35.14 593.608 35.14C594.142 35.14 594.682 35.0333 595.228 34.82C595.788 34.5933 596.328 34.32 596.848 34C597.382 33.6667 597.862 33.34 598.288 33.02C598.728 32.6867 599.095 32.4133 599.388 32.2C599.695 31.9733 599.895 31.86 599.988 31.86C600.442 31.86 600.668 32.0867 600.668 32.54C600.668 32.66 600.522 32.9133 600.228 33.3C599.948 33.6733 599.562 34.1067 599.068 34.6C598.575 35.08 598.022 35.56 597.408 36.04C596.808 36.5067 596.182 36.8933 595.528 37.2C594.888 37.5067 594.268 37.66 593.668 37.66C592.935 37.66 592.375 37.4867 591.988 37.14C591.615 36.7933 591.348 36.3267 591.188 35.74C591.042 35.14 590.962 34.4667 590.948 33.72C590.268 34.6933 589.562 35.56 588.828 36.32C588.108 37.0667 587.395 37.66 586.688 38.1C585.982 38.54 585.322 38.76 584.708 38.76ZM591.788 28.74C590.482 29.3667 589.308 30.0867 588.268 30.9C587.228 31.7 586.402 32.54 585.788 33.42C585.188 34.3 584.888 35.1467 584.888 35.96C584.888 36.1867 584.995 36.3 585.208 36.3C585.462 36.3 585.795 36.1533 586.208 35.86C586.635 35.5667 587.095 35.18 587.588 34.7C588.082 34.2067 588.575 33.66 589.068 33.06C589.562 32.4467 590.022 31.82 590.448 31.18C590.875 30.54 591.215 29.9267 591.468 29.34C591.562 29.1267 591.668 28.9267 591.788 28.74ZM603.091 39C601.891 39 600.944 38.6333 600.251 37.9C599.571 37.1533 599.231 36.0933 599.231 34.72C599.231 33.9733 599.331 33.1 599.531 32.1C599.731 31.0867 599.991 30.02 600.311 28.9C600.644 27.7667 600.998 26.6467 601.371 25.54C601.758 24.4333 602.138 23.4067 602.511 22.46C602.884 21.5133 603.211 20.72 603.491 20.08C603.731 19.5867 604.071 19.34 604.511 19.34C604.791 19.34 605.018 19.4267 605.191 19.6C605.378 19.7733 605.471 20.0533 605.471 20.44C605.471 20.6267 605.378 21.0333 605.191 21.66C605.004 22.2867 604.758 23.06 604.451 23.98C604.158 24.8867 603.838 25.8667 603.491 26.92C603.158 27.9733 602.838 29.0333 602.531 30.1C602.238 31.1667 601.998 32.1733 601.811 33.12C601.624 34.0533 601.531 34.8467 601.531 35.5C601.531 35.7667 601.604 35.98 601.751 36.14C601.911 36.3 602.118 36.38 602.371 36.38C602.918 36.38 603.478 36.28 604.051 36.08C604.638 35.88 605.211 35.6267 605.771 35.32C606.344 35.0133 606.884 34.6867 607.391 34.34C607.898 33.9933 608.351 33.6667 608.751 33.36C609.164 33.04 609.498 32.7867 609.751 32.6C610.084 32.3467 610.311 32.22 610.431 32.22C610.884 32.22 611.111 32.44 611.111 32.88C611.111 32.9867 610.978 33.2067 610.711 33.54C610.484 33.8333 610.164 34.2067 609.751 34.66C609.338 35.1133 608.858 35.5933 608.311 36.1C607.778 36.5933 607.204 37.06 606.591 37.5C605.991 37.94 605.391 38.3 604.791 38.58C604.191 38.86 603.624 39 603.091 39ZM619.747 38.3C619.374 38.3 619.041 38.1733 618.747 37.92C618.467 37.6667 618.327 37.2533 618.327 36.68C618.327 36.3733 618.367 35.94 618.447 35.38C618.541 34.82 618.661 34.2133 618.807 33.56C618.954 32.8933 619.114 32.2333 619.287 31.58C619.474 30.9267 619.654 30.3467 619.827 29.84C620.001 29.32 620.154 28.9333 620.287 28.68C620.461 28.3733 620.621 28.1867 620.767 28.12C620.927 28.04 621.081 28 621.227 28C621.494 28 621.741 28.08 621.967 28.24C622.207 28.4 622.327 28.7533 622.327 29.3C622.327 29.5133 622.287 29.86 622.207 30.34C622.127 30.8067 622.027 31.3533 621.907 31.98C621.787 32.6067 621.654 33.2533 621.507 33.92C621.374 34.5867 621.241 35.22 621.107 35.82C620.987 36.4067 620.887 36.9 620.807 37.3C620.741 37.6333 620.601 37.88 620.387 38.04C620.187 38.2133 619.974 38.3 619.747 38.3ZM622.047 26.02C621.607 26.02 621.201 25.8933 620.827 25.64C620.454 25.3733 620.267 24.9667 620.267 24.42C620.267 23.9667 620.381 23.6 620.607 23.32C620.834 23.04 621.101 22.84 621.407 22.72C621.727 22.5867 622.007 22.52 622.247 22.52C622.487 22.52 622.754 22.5733 623.047 22.68C623.341 22.7733 623.594 22.9533 623.807 23.22C624.034 23.4733 624.147 23.84 624.147 24.32C624.147 24.64 624.034 24.9333 623.807 25.2C623.581 25.4533 623.301 25.6533 622.967 25.8C622.647 25.9467 622.341 26.02 622.047 26.02ZM633.542 27.3C634.275 25.5533 634.922 23.7533 635.482 21.9C635.589 21.5267 635.742 21.24 635.942 21.04C636.155 20.84 636.449 20.74 636.822 20.74C637.129 20.74 637.362 20.8333 637.522 21.02C637.682 21.1933 637.762 21.4333 637.762 21.74C637.762 21.9933 637.655 22.4467 637.442 23.1C637.229 23.74 636.969 24.5533 636.662 25.54C636.355 26.5267 636.049 27.6667 635.742 28.96C635.435 30.2533 635.175 31.6733 634.962 33.22C634.749 34.7667 634.642 36.42 634.642 38.18C634.642 38.66 634.549 39.0533 634.362 39.36C634.189 39.68 633.882 39.84 633.442 39.84C632.962 39.84 632.609 39.6733 632.382 39.34C632.169 39.0067 632.062 38.58 632.062 38.06C632.062 37.0333 632.095 36.18 632.162 35.5C632.242 34.8067 632.322 34.2133 632.402 33.72C631.749 34.84 631.055 35.8067 630.322 36.62C629.602 37.42 628.909 38.0333 628.242 38.46C627.575 38.9 627.002 39.12 626.522 39.12C625.735 39.12 625.095 38.9 624.602 38.46C624.109 38.02 623.862 37.3533 623.862 36.46C623.862 35.7667 624.029 35.0533 624.362 34.32C624.695 33.5733 625.135 32.84 625.682 32.12C626.229 31.4 626.829 30.7267 627.482 30.1C628.149 29.46 628.815 28.9 629.482 28.42C630.149 27.9267 630.769 27.54 631.342 27.26C631.915 26.98 632.382 26.84 632.742 26.84C633.142 26.84 633.409 26.9933 633.542 27.3ZM633.082 28.38C633.002 28.4333 632.915 28.4867 632.822 28.54C632.742 28.58 632.662 28.6267 632.582 28.68C632.075 29 631.535 29.3867 630.962 29.84C630.389 30.28 629.822 30.7733 629.262 31.32C628.702 31.8533 628.189 32.4133 627.722 33C627.269 33.5733 626.902 34.1467 626.622 34.72C626.355 35.28 626.222 35.82 626.222 36.34C626.222 36.4333 626.262 36.5 626.342 36.54C626.422 36.58 626.495 36.6 626.562 36.6C627.029 36.6 627.529 36.3933 628.062 35.98C628.609 35.5667 629.162 34.9933 629.722 34.26C630.295 33.5133 630.862 32.64 631.422 31.64C631.995 30.64 632.549 29.5533 633.082 28.38ZM641.56 38.68C640.733 38.68 640.067 38.3933 639.56 37.82C639.053 37.2333 638.8 36.2933 638.8 35C638.8 34.1733 638.893 33.3467 639.08 32.52C639.28 31.68 639.553 30.8867 639.9 30.14C640.26 29.38 640.673 28.7067 641.14 28.12C641.62 27.5333 642.147 27.0733 642.72 26.74C643.293 26.3933 643.887 26.22 644.5 26.22C645.54 26.22 646.353 26.5 646.94 27.06C647.527 27.62 647.82 28.3333 647.82 29.2C647.82 29.8667 647.633 30.4733 647.26 31.02C646.9 31.5533 646.407 32.0333 645.78 32.46C645.153 32.8867 644.453 33.2733 643.68 33.62C642.907 33.9667 642.113 34.28 641.3 34.56C641.233 35.04 641.2 35.4667 641.2 35.84C641.2 36.0667 641.327 36.18 641.58 36.18C642.18 36.18 642.82 36.0867 643.5 35.9C644.193 35.7 644.893 35.4467 645.6 35.14C646.307 34.82 646.987 34.4933 647.64 34.16C648.293 33.8133 648.887 33.4867 649.42 33.18C649.967 32.86 650.413 32.6067 650.76 32.42C651.12 32.22 651.353 32.12 651.46 32.12C651.753 32.12 651.967 32.2067 652.1 32.38C652.233 32.5533 652.3 32.74 652.3 32.94C652.3 33.0333 652.12 33.24 651.76 33.56C651.413 33.88 650.933 34.26 650.32 34.7C649.72 35.1267 649.04 35.5733 648.28 36.04C647.533 36.4933 646.753 36.9267 645.94 37.34C645.14 37.74 644.36 38.06 643.6 38.3C642.853 38.5533 642.173 38.68 641.56 38.68ZM641.64 32.78C642.187 32.46 642.727 32.1267 643.26 31.78C643.807 31.42 644.26 31.02 644.62 30.58C644.98 30.1267 645.16 29.6 645.16 29C645.16 28.8267 645.113 28.7133 645.02 28.66C644.927 28.5933 644.793 28.56 644.62 28.56C644.153 28.56 643.727 28.7667 643.34 29.18C642.967 29.5933 642.633 30.1267 642.34 30.78C642.06 31.42 641.827 32.0867 641.64 32.78ZM652.072 38.76C651.645 38.76 651.258 38.64 650.912 38.4C650.565 38.1733 650.292 37.8733 650.092 37.5C649.892 37.1133 649.792 36.7 649.792 36.26C649.792 35.4333 649.972 34.6267 650.332 33.84C650.705 33.0533 651.192 32.3067 651.792 31.6C652.392 30.8933 653.045 30.2467 653.752 29.66C654.472 29.06 655.185 28.5467 655.892 28.12C656.612 27.6933 657.265 27.36 657.852 27.12C658.452 26.88 658.918 26.76 659.252 26.76C659.638 26.76 659.952 26.8467 660.192 27.02C660.445 27.18 660.572 27.4333 660.572 27.78C660.572 27.8867 660.545 27.9733 660.492 28.04C660.665 28.08 660.805 28.18 660.912 28.34C661.018 28.5 661.072 28.74 661.072 29.06C661.072 29.1933 661.038 29.54 660.972 30.1C660.905 30.66 660.832 31.34 660.752 32.14C660.685 32.94 660.652 33.7733 660.652 34.64C660.652 34.7733 660.672 34.8933 660.712 35C660.752 35.0933 660.838 35.14 660.972 35.14C661.505 35.14 662.045 35.0333 662.592 34.82C663.152 34.5933 663.692 34.32 664.212 34C664.745 33.6667 665.225 33.34 665.652 33.02C666.092 32.6867 666.458 32.4133 666.752 32.2C667.058 31.9733 667.258 31.86 667.352 31.86C667.805 31.86 668.032 32.0867 668.032 32.54C668.032 32.66 667.885 32.9133 667.592 33.3C667.312 33.6733 666.925 34.1067 666.432 34.6C665.938 35.08 665.385 35.56 664.772 36.04C664.172 36.5067 663.545 36.8933 662.892 37.2C662.252 37.5067 661.632 37.66 661.032 37.66C660.298 37.66 659.738 37.4867 659.352 37.14C658.978 36.7933 658.712 36.3267 658.552 35.74C658.405 35.14 658.325 34.4667 658.312 33.72C657.632 34.6933 656.925 35.56 656.192 36.32C655.472 37.0667 654.758 37.66 654.052 38.1C653.345 38.54 652.685 38.76 652.072 38.76ZM659.152 28.74C657.845 29.3667 656.672 30.0867 655.632 30.9C654.592 31.7 653.765 32.54 653.152 33.42C652.552 34.3 652.252 35.1467 652.252 35.96C652.252 36.1867 652.358 36.3 652.572 36.3C652.825 36.3 653.158 36.1533 653.572 35.86C653.998 35.5667 654.458 35.18 654.952 34.7C655.445 34.2067 655.938 33.66 656.432 33.06C656.925 32.4467 657.385 31.82 657.812 31.18C658.238 30.54 658.578 29.9267 658.832 29.34C658.925 29.1267 659.032 28.9267 659.152 28.74ZM668.328 44.7C667.128 45.02 666.528 44.8133 666.528 44.08C666.528 43.6933 666.755 43.3733 667.208 43.12C667.875 42.7067 668.415 42.1 668.828 41.3C669.228 40.5 669.542 39.5933 669.768 38.58C670.008 37.5667 670.195 36.54 670.328 35.5C670.395 35.0733 670.522 34.7933 670.708 34.66C670.895 34.5133 671.095 34.44 671.308 34.44C671.722 34.44 672.108 34.6067 672.468 34.94C672.828 35.26 673.008 35.7933 673.008 36.54C673.008 37.5533 672.855 38.52 672.548 39.44C672.255 40.36 671.868 41.1867 671.388 41.92C670.922 42.6667 670.415 43.28 669.868 43.76C669.322 44.24 668.808 44.5533 668.328 44.7ZM695.046 27.3C695.779 25.5533 696.426 23.7533 696.986 21.9C697.092 21.5267 697.246 21.24 697.446 21.04C697.659 20.84 697.952 20.74 698.326 20.74C698.632 20.74 698.866 20.8333 699.026 21.02C699.186 21.1933 699.266 21.4333 699.266 21.74C699.266 21.9933 699.159 22.4467 698.946 23.1C698.732 23.74 698.472 24.5533 698.166 25.54C697.859 26.5267 697.552 27.6667 697.246 28.96C696.939 30.2533 696.679 31.6733 696.466 33.22C696.252 34.7667 696.146 36.42 696.146 38.18C696.146 38.66 696.052 39.0533 695.866 39.36C695.692 39.68 695.386 39.84 694.946 39.84C694.466 39.84 694.112 39.6733 693.886 39.34C693.672 39.0067 693.566 38.58 693.566 38.06C693.566 37.0333 693.599 36.18 693.666 35.5C693.746 34.8067 693.826 34.2133 693.906 33.72C693.252 34.84 692.559 35.8067 691.826 36.62C691.106 37.42 690.412 38.0333 689.746 38.46C689.079 38.9 688.506 39.12 688.026 39.12C687.239 39.12 686.599 38.9 686.106 38.46C685.612 38.02 685.366 37.3533 685.366 36.46C685.366 35.7667 685.532 35.0533 685.866 34.32C686.199 33.5733 686.639 32.84 687.186 32.12C687.732 31.4 688.332 30.7267 688.986 30.1C689.652 29.46 690.319 28.9 690.986 28.42C691.652 27.9267 692.272 27.54 692.846 27.26C693.419 26.98 693.886 26.84 694.246 26.84C694.646 26.84 694.912 26.9933 695.046 27.3ZM694.586 28.38C694.506 28.4333 694.419 28.4867 694.326 28.54C694.246 28.58 694.166 28.6267 694.086 28.68C693.579 29 693.039 29.3867 692.466 29.84C691.892 30.28 691.326 30.7733 690.766 31.32C690.206 31.8533 689.692 32.4133 689.226 33C688.772 33.5733 688.406 34.1467 688.126 34.72C687.859 35.28 687.726 35.82 687.726 36.34C687.726 36.4333 687.766 36.5 687.846 36.54C687.926 36.58 687.999 36.6 688.066 36.6C688.532 36.6 689.032 36.3933 689.566 35.98C690.112 35.5667 690.666 34.9933 691.226 34.26C691.799 33.5133 692.366 32.64 692.926 31.64C693.499 30.64 694.052 29.5533 694.586 28.38ZM703.064 38.68C702.237 38.68 701.57 38.3933 701.064 37.82C700.557 37.2333 700.304 36.2933 700.304 35C700.304 34.1733 700.397 33.3467 700.584 32.52C700.784 31.68 701.057 30.8867 701.404 30.14C701.764 29.38 702.177 28.7067 702.644 28.12C703.124 27.5333 703.65 27.0733 704.224 26.74C704.797 26.3933 705.39 26.22 706.004 26.22C707.044 26.22 707.857 26.5 708.444 27.06C709.03 27.62 709.324 28.3333 709.324 29.2C709.324 29.8667 709.137 30.4733 708.764 31.02C708.404 31.5533 707.91 32.0333 707.284 32.46C706.657 32.8867 705.957 33.2733 705.184 33.62C704.41 33.9667 703.617 34.28 702.804 34.56C702.737 35.04 702.704 35.4667 702.704 35.84C702.704 36.0667 702.83 36.18 703.084 36.18C703.684 36.18 704.324 36.0867 705.004 35.9C705.697 35.7 706.397 35.4467 707.104 35.14C707.81 34.82 708.49 34.4933 709.144 34.16C709.797 33.8133 710.39 33.4867 710.924 33.18C711.47 32.86 711.917 32.6067 712.264 32.42C712.624 32.22 712.857 32.12 712.964 32.12C713.257 32.12 713.47 32.2067 713.604 32.38C713.737 32.5533 713.804 32.74 713.804 32.94C713.804 33.0333 713.624 33.24 713.264 33.56C712.917 33.88 712.437 34.26 711.824 34.7C711.224 35.1267 710.544 35.5733 709.784 36.04C709.037 36.4933 708.257 36.9267 707.444 37.34C706.644 37.74 705.864 38.06 705.104 38.3C704.357 38.5533 703.677 38.68 703.064 38.68ZM703.144 32.78C703.69 32.46 704.23 32.1267 704.764 31.78C705.31 31.42 705.764 31.02 706.124 30.58C706.484 30.1267 706.664 29.6 706.664 29C706.664 28.8267 706.617 28.7133 706.524 28.66C706.43 28.5933 706.297 28.56 706.124 28.56C705.657 28.56 705.23 28.7667 704.844 29.18C704.47 29.5933 704.137 30.1267 703.844 30.78C703.564 31.42 703.33 32.0867 703.144 32.78ZM730.268 37.54C730.188 38.26 729.762 38.62 728.988 38.62C728.588 38.62 728.268 38.5 728.028 38.26C727.802 38.02 727.688 37.6733 727.688 37.22C727.688 36.4467 727.722 35.62 727.788 34.74C727.868 33.8467 727.962 32.9467 728.068 32.04C728.188 31.1333 728.302 30.2667 728.408 29.44C727.928 30.1333 727.422 30.8467 726.888 31.58C726.355 32.3133 725.822 33.0267 725.288 33.72C724.755 34.4133 724.242 35.04 723.748 35.6C723.268 36.1467 722.828 36.5867 722.428 36.92C722.028 37.24 721.695 37.4 721.428 37.4C720.788 37.4 720.235 37.1667 719.768 36.7C719.302 36.22 719.068 35.6133 719.068 34.88C719.068 34.6267 719.095 34.2867 719.148 33.86C719.202 33.42 719.268 32.9533 719.348 32.46C719.428 31.9667 719.495 31.5 719.548 31.06C719.602 30.62 719.628 30.2733 719.628 30.02C719.628 30.02 719.628 30.0067 719.628 29.98C719.642 29.9133 719.628 29.88 719.588 29.88C719.535 29.88 719.388 30.06 719.148 30.42C718.908 30.7667 718.615 31.22 718.268 31.78C717.922 32.34 717.555 32.9267 717.168 33.54C716.795 34.1533 716.442 34.7267 716.108 35.26C715.788 35.7933 715.522 36.2067 715.308 36.5C715.015 36.9533 714.742 37.24 714.488 37.36C714.235 37.48 713.942 37.54 713.608 37.54C713.142 37.54 712.775 37.3867 712.508 37.08C712.255 36.76 712.128 36.3133 712.128 35.74C712.128 35.5 712.168 35.1267 712.248 34.62C712.342 34.1133 712.455 33.5533 712.588 32.94C712.722 32.3133 712.855 31.7067 712.988 31.12C713.135 30.52 713.262 30.0133 713.368 29.6C713.488 29.0533 713.655 28.6733 713.868 28.46C714.095 28.2333 714.382 28.12 714.728 28.12C715.542 28.12 715.948 28.52 715.948 29.32C715.948 29.4667 715.902 29.7067 715.808 30.04C715.715 30.3733 715.602 30.76 715.468 31.2C715.335 31.64 715.195 32.0933 715.048 32.56C714.902 33.0133 714.782 33.44 714.688 33.84C715.008 33.28 715.355 32.68 715.728 32.04C716.102 31.4 716.482 30.7733 716.868 30.16C717.268 29.5467 717.662 28.9867 718.048 28.48C718.448 27.9733 718.842 27.5733 719.228 27.28C719.615 26.9733 719.982 26.82 720.328 26.82C720.675 26.82 721.015 26.9467 721.348 27.2C721.682 27.44 721.955 27.7533 722.168 28.14C722.395 28.5133 722.508 28.9133 722.508 29.34C722.508 29.74 722.455 30.22 722.348 30.78C722.242 31.34 722.122 31.9267 721.988 32.54C721.855 33.1533 721.762 33.7533 721.708 34.34C722.162 33.8333 722.642 33.26 723.148 32.62C723.655 31.9667 724.175 31.2933 724.708 30.6C725.242 29.9067 725.762 29.2333 726.268 28.58C726.788 27.9267 727.268 27.3333 727.708 26.8C728.162 26.2667 728.562 25.8467 728.908 25.54C729.255 25.22 729.522 25.06 729.708 25.06C730.255 25.06 730.682 25.2067 730.988 25.5C731.308 25.78 731.468 26.2733 731.468 26.98C731.468 27.42 731.435 27.9933 731.368 28.7C731.315 29.4067 731.235 30.1733 731.128 31C731.035 31.8133 730.928 32.64 730.808 33.48C730.702 34.3067 730.602 35.0733 730.508 35.78C730.415 36.4867 730.335 37.0733 730.268 37.54ZM737.47 38.66C736.524 38.66 735.764 38.3267 735.19 37.66C734.617 36.98 734.33 36.0733 734.33 34.94C734.33 34.58 734.377 34.2133 734.47 33.84C734.577 33.4667 734.704 33.12 734.85 32.8C734.77 32.68 734.704 32.5267 734.65 32.34C734.61 32.14 734.59 31.9067 734.59 31.64C734.59 30.7733 734.744 29.98 735.05 29.26C735.357 28.5267 735.77 27.8933 736.29 27.36C736.81 26.8267 737.384 26.4133 738.01 26.12C738.637 25.8267 739.27 25.68 739.91 25.68C741.004 25.68 741.897 26.0467 742.59 26.78C743.297 27.5133 743.65 28.6533 743.65 30.2C743.65 30.9733 743.53 31.76 743.29 32.56C743.05 33.36 742.724 34.1267 742.31 34.86C741.91 35.58 741.444 36.2267 740.91 36.8C740.39 37.3733 739.83 37.8267 739.23 38.16C738.644 38.4933 738.057 38.66 737.47 38.66ZM737.15 31.9C737.217 32.0467 737.25 32.22 737.25 32.42C737.25 32.62 737.21 32.8267 737.13 33.04C737.05 33.2533 736.97 33.54 736.89 33.9C736.81 34.2467 736.77 34.7467 736.77 35.4C736.77 35.5733 736.79 35.72 736.83 35.84C736.884 35.9467 736.997 36 737.17 36C737.624 36 738.05 35.8533 738.45 35.56C738.864 35.2667 739.23 34.88 739.55 34.4C739.884 33.92 740.164 33.3867 740.39 32.8C740.63 32.2 740.81 31.5933 740.93 30.98C741.064 30.3533 741.13 29.7733 741.13 29.24C741.13 28.8933 741.064 28.6533 740.93 28.52C740.797 28.3867 740.564 28.32 740.23 28.32C739.777 28.32 739.31 28.4667 738.83 28.76C738.364 29.04 737.97 29.4267 737.65 29.92C737.33 30.4 737.17 30.9467 737.17 31.56C737.17 31.68 737.164 31.7933 737.15 31.9ZM744.324 44.7C743.124 45.02 742.524 44.8133 742.524 44.08C742.524 43.6933 742.751 43.3733 743.204 43.12C743.871 42.7067 744.411 42.1 744.824 41.3C745.224 40.5 745.538 39.5933 745.764 38.58C746.004 37.5667 746.191 36.54 746.324 35.5C746.391 35.0733 746.518 34.7933 746.704 34.66C746.891 34.5133 747.091 34.44 747.304 34.44C747.718 34.44 748.104 34.6067 748.464 34.94C748.824 35.26 749.004 35.7933 749.004 36.54C749.004 37.5533 748.851 38.52 748.544 39.44C748.251 40.36 747.864 41.1867 747.384 41.92C746.918 42.6667 746.411 43.28 745.864 43.76C745.318 44.24 744.804 44.5533 744.324 44.7ZM764.822 39.02C764.249 39.02 763.842 38.94 763.602 38.78C763.375 38.62 763.262 38.3867 763.262 38.08C763.262 37.8133 763.355 37.5867 763.542 37.4C763.729 37.2 764.142 37 764.782 36.8C765.529 36.5733 766.235 36.3133 766.902 36.02C767.582 35.7133 768.135 35.38 768.562 35.02C769.002 34.66 769.222 34.28 769.222 33.88C769.222 33.6133 769.129 33.42 768.942 33.3C768.769 33.18 768.562 33.12 768.322 33.12C768.122 33.12 767.829 33.1533 767.442 33.22C767.069 33.2733 766.655 33.3467 766.202 33.44C765.749 33.52 765.309 33.5933 764.882 33.66C764.469 33.7133 764.115 33.74 763.822 33.74C763.129 33.74 762.615 33.5867 762.282 33.28C761.949 32.96 761.782 32.5533 761.782 32.06C761.782 31.7933 761.922 31.4267 762.202 30.96C762.482 30.4933 762.855 29.98 763.322 29.42C763.789 28.86 764.309 28.3 764.882 27.74C765.455 27.18 766.035 26.6667 766.622 26.2C767.222 25.72 767.789 25.34 768.322 25.06C768.855 24.7667 769.309 24.62 769.682 24.62C770.109 24.62 770.449 24.7533 770.702 25.02C770.969 25.2867 771.102 25.6467 771.102 26.1C771.102 26.3133 771.082 26.5467 771.042 26.8C771.002 27.04 770.902 27.26 770.742 27.46C770.582 27.6467 770.335 27.78 770.002 27.86C769.669 27.94 769.215 27.9267 768.642 27.82C768.189 28.1533 767.715 28.52 767.222 28.92C766.742 29.3067 766.289 29.7133 765.862 30.14C765.435 30.5533 765.082 30.96 764.802 31.36C765.295 31.2 765.855 31.0733 766.482 30.98C767.109 30.8733 767.742 30.82 768.382 30.82C769.155 30.82 769.782 30.96 770.262 31.24C770.755 31.5067 771.115 31.8667 771.342 32.32C771.582 32.7733 771.702 33.2733 771.702 33.82C771.702 34.4333 771.502 35.0467 771.102 35.66C770.702 36.2733 770.169 36.8333 769.502 37.34C768.835 37.8467 768.095 38.2533 767.282 38.56C766.469 38.8667 765.649 39.02 764.822 39.02ZM777.671 38.56C776.924 38.56 776.278 38.3867 775.731 38.04C775.184 37.7067 774.764 37.2733 774.471 36.74C774.178 36.1933 774.031 35.6333 774.031 35.06C774.031 34.1 774.178 33.2133 774.471 32.4C774.764 31.5733 775.151 30.8267 775.631 30.16C776.111 29.48 776.631 28.88 777.191 28.36C777.764 27.84 778.318 27.4067 778.851 27.06C779.398 26.7 779.884 26.4333 780.311 26.26C780.738 26.0733 781.051 25.98 781.251 25.98C781.611 25.98 781.864 26.06 782.011 26.22C782.171 26.3667 782.251 26.6133 782.251 26.96C782.251 27.16 782.104 27.4 781.811 27.68C781.531 27.96 781.158 28.28 780.691 28.64C780.238 29 779.758 29.4067 779.251 29.86C778.744 30.3133 778.258 30.82 777.791 31.38C777.338 31.94 776.964 32.5533 776.671 33.22C776.391 33.8867 776.251 34.6133 776.251 35.4C776.251 35.6933 776.304 35.92 776.411 36.08C776.531 36.24 776.724 36.32 776.991 36.32C777.751 36.32 778.564 36.1867 779.431 35.92C780.311 35.64 781.184 35.2933 782.051 34.88C782.931 34.4533 783.758 34.0133 784.531 33.56C785.318 33.1067 785.991 32.7 786.551 32.34C786.778 32.18 786.971 32.0533 787.131 31.96C787.291 31.8667 787.404 31.82 787.471 31.82C787.871 31.82 788.071 32.0267 788.071 32.44C788.071 32.6533 787.911 32.94 787.591 33.3C787.218 33.7667 786.711 34.2467 786.071 34.74C785.444 35.2333 784.744 35.7067 783.971 36.16C783.211 36.6133 782.431 37.02 781.631 37.38C780.844 37.74 780.104 38.0267 779.411 38.24C778.718 38.4533 778.138 38.56 777.671 38.56ZM787.298 38.88C786.965 38.88 786.678 38.76 786.438 38.52C786.212 38.28 786.098 37.9333 786.098 37.48C786.098 37.28 786.125 36.9533 786.178 36.5C786.245 36.0333 786.325 35.5 786.418 34.9C786.525 34.3 786.625 33.6733 786.718 33.02C786.825 32.3667 786.912 31.7467 786.978 31.16C787.058 30.5733 787.112 30.0733 787.138 29.66C787.165 29.1533 787.298 28.7933 787.538 28.58C787.778 28.3533 788.065 28.24 788.398 28.24C788.665 28.24 788.905 28.3067 789.118 28.44C789.345 28.56 789.485 28.82 789.538 29.22C789.605 29.6067 789.612 30.1667 789.558 30.9C790.145 29.8333 790.738 28.88 791.338 28.04C791.952 27.2 792.592 26.5333 793.258 26.04C794.365 25.2 795.365 24.78 796.258 24.78C796.765 24.78 797.098 24.8933 797.258 25.12C797.418 25.3467 797.498 25.58 797.498 25.82C797.498 25.98 797.458 26.1267 797.378 26.26C797.312 26.3933 797.165 26.5333 796.938 26.68C796.712 26.8267 796.365 27.02 795.898 27.26C795.272 27.58 794.652 28 794.038 28.52C793.438 29.04 792.838 29.7067 792.238 30.52C791.638 31.3333 791.032 32.3333 790.418 33.52C789.805 34.7067 789.172 36.12 788.518 37.76C788.398 38.2133 788.225 38.5133 787.998 38.66C787.785 38.8067 787.552 38.88 787.298 38.88ZM796.837 38.76C796.411 38.76 796.024 38.64 795.677 38.4C795.331 38.1733 795.057 37.8733 794.857 37.5C794.657 37.1133 794.557 36.7 794.557 36.26C794.557 35.4333 794.737 34.6267 795.097 33.84C795.471 33.0533 795.957 32.3067 796.557 31.6C797.157 30.8933 797.811 30.2467 798.517 29.66C799.237 29.06 799.951 28.5467 800.657 28.12C801.377 27.6933 802.031 27.36 802.617 27.12C803.217 26.88 803.684 26.76 804.017 26.76C804.404 26.76 804.717 26.8467 804.957 27.02C805.211 27.18 805.337 27.4333 805.337 27.78C805.337 27.8867 805.311 27.9733 805.257 28.04C805.431 28.08 805.571 28.18 805.677 28.34C805.784 28.5 805.837 28.74 805.837 29.06C805.837 29.1933 805.804 29.54 805.737 30.1C805.671 30.66 805.597 31.34 805.517 32.14C805.451 32.94 805.417 33.7733 805.417 34.64C805.417 34.7733 805.437 34.8933 805.477 35C805.517 35.0933 805.604 35.14 805.737 35.14C806.271 35.14 806.811 35.0333 807.357 34.82C807.917 34.5933 808.457 34.32 808.977 34C809.511 33.6667 809.991 33.34 810.417 33.02C810.857 32.6867 811.224 32.4133 811.517 32.2C811.824 31.9733 812.024 31.86 812.117 31.86C812.571 31.86 812.797 32.0867 812.797 32.54C812.797 32.66 812.651 32.9133 812.357 33.3C812.077 33.6733 811.691 34.1067 811.197 34.6C810.704 35.08 810.151 35.56 809.537 36.04C808.937 36.5067 808.311 36.8933 807.657 37.2C807.017 37.5067 806.397 37.66 805.797 37.66C805.064 37.66 804.504 37.4867 804.117 37.14C803.744 36.7933 803.477 36.3267 803.317 35.74C803.171 35.14 803.091 34.4667 803.077 33.72C802.397 34.6933 801.691 35.56 800.957 36.32C800.237 37.0667 799.524 37.66 798.817 38.1C798.111 38.54 797.451 38.76 796.837 38.76ZM803.917 28.74C802.611 29.3667 801.437 30.0867 800.397 30.9C799.357 31.7 798.531 32.54 797.917 33.42C797.317 34.3 797.017 35.1467 797.017 35.96C797.017 36.1867 797.124 36.3 797.337 36.3C797.591 36.3 797.924 36.1533 798.337 35.86C798.764 35.5667 799.224 35.18 799.717 34.7C800.211 34.2067 800.704 33.66 801.197 33.06C801.691 32.4467 802.151 31.82 802.577 31.18C803.004 30.54 803.344 29.9267 803.597 29.34C803.691 29.1267 803.797 28.9267 803.917 28.74ZM811.572 44.42C811.199 44.42 810.906 44.2867 810.692 44.02C810.492 43.7667 810.392 43.3733 810.392 42.84C810.392 42.1067 810.459 41.2333 810.592 40.22C810.726 39.2067 810.906 38.1333 811.132 37C811.359 35.8667 811.606 34.7533 811.872 33.66C812.192 32.4067 812.506 31.2667 812.812 30.24C813.132 29.2133 813.452 28.3933 813.772 27.78C814.106 27.1533 814.439 26.84 814.772 26.84C815.079 26.84 815.346 26.9533 815.572 27.18C815.812 27.3933 815.932 27.7133 815.932 28.14C815.932 28.4467 815.852 28.8867 815.692 29.46C815.532 30.02 815.332 30.72 815.092 31.56C815.546 30.8133 816.012 30.08 816.492 29.36C816.986 28.64 817.486 27.9867 817.992 27.4C818.499 26.8133 818.992 26.3467 819.472 26C819.952 25.6533 820.406 25.48 820.832 25.48C821.339 25.48 821.786 25.6267 822.172 25.92C822.572 26.2133 822.886 26.6133 823.112 27.12C823.339 27.6267 823.452 28.2 823.452 28.84C823.452 30.0267 823.239 31.18 822.812 32.3C822.386 33.4067 821.792 34.4 821.032 35.28C820.286 36.16 819.412 36.86 818.412 37.38C817.412 37.8867 816.332 38.14 815.172 38.14C814.839 38.14 814.532 38.1067 814.252 38.04C813.986 37.9867 813.739 37.92 813.512 37.84C813.352 38.6933 813.199 39.5667 813.052 40.46C812.919 41.3667 812.779 42.32 812.632 43.32C812.472 44.0533 812.119 44.42 811.572 44.42ZM821.032 27.84C820.739 27.84 820.366 28.04 819.912 28.44C819.472 28.84 818.992 29.3667 818.472 30.02C817.952 30.66 817.426 31.36 816.892 32.12C816.372 32.8667 815.872 33.6 815.392 34.32C814.926 35.04 814.526 35.6667 814.192 36.2C815.206 36.0933 816.099 35.8267 816.872 35.4C817.646 34.96 818.306 34.4267 818.852 33.8C819.399 33.1733 819.839 32.5133 820.172 31.82C820.519 31.1133 820.772 30.4267 820.932 29.76C821.092 29.0933 821.172 28.5133 821.172 28.02C821.172 27.9 821.126 27.84 821.032 27.84ZM823.758 44.7C822.558 45.02 821.958 44.8133 821.958 44.08C821.958 43.6933 822.185 43.3733 822.638 43.12C823.305 42.7067 823.845 42.1 824.258 41.3C824.658 40.5 824.971 39.5933 825.198 38.58C825.438 37.5667 825.625 36.54 825.758 35.5C825.825 35.0733 825.951 34.7933 826.138 34.66C826.325 34.5133 826.525 34.44 826.738 34.44C827.151 34.44 827.538 34.6067 827.898 34.94C828.258 35.26 828.438 35.7933 828.438 36.54C828.438 37.5533 828.285 38.52 827.978 39.44C827.685 40.36 827.298 41.1867 826.818 41.92C826.351 42.6667 825.845 43.28 825.298 43.76C824.751 44.24 824.238 44.5533 823.758 44.7ZM867.995 28.48C867.995 28.6667 867.742 28.8733 867.235 29.1C866.729 29.3267 866.049 29.5667 865.195 29.82C864.355 30.06 863.415 30.3 862.375 30.54C861.335 30.7667 860.282 30.9733 859.215 31.16C858.842 32.4 858.475 33.6533 858.115 34.92C857.755 36.1733 857.442 37.3467 857.175 38.44C857.109 38.7333 856.955 38.9533 856.715 39.1C856.489 39.2467 856.242 39.32 855.975 39.32C855.642 39.32 855.369 39.2267 855.155 39.04C854.942 38.8667 854.835 38.64 854.835 38.36C854.835 37.88 854.969 37.1133 855.235 36.06C855.502 35.0067 855.822 33.8133 856.195 32.48C855.582 33.36 854.962 34.1667 854.335 34.9C853.709 35.6333 853.115 36.2333 852.555 36.7C851.675 37.42 850.762 37.9933 849.815 38.42C848.882 38.86 847.949 39.08 847.015 39.08C845.522 39.08 844.435 38.7067 843.755 37.96C843.075 37.2133 842.735 36.1067 842.735 34.64C842.735 33.8 842.829 32.9667 843.015 32.14C843.215 31.3 843.482 30.5133 843.815 29.78C844.149 29.0333 844.529 28.3733 844.955 27.8C845.382 27.2267 845.829 26.78 846.295 26.46C846.762 26.1267 847.229 25.96 847.695 25.96C848.842 25.96 849.675 26.2667 850.195 26.88C850.729 27.48 850.995 28.22 850.995 29.1C850.995 29.7 850.822 30.2733 850.475 30.82C850.142 31.3667 849.695 31.8733 849.135 32.34C848.575 32.7933 847.949 33.18 847.255 33.5C846.575 33.82 845.889 34.0533 845.195 34.2C845.195 34.2933 845.195 34.3933 845.195 34.5C845.195 35.3533 845.355 35.94 845.675 36.26C846.009 36.58 846.542 36.74 847.275 36.74C848.489 36.74 849.695 36.34 850.895 35.54C852.109 34.7267 853.309 33.4867 854.495 31.82C853.949 31.86 853.475 31.88 853.075 31.88C852.502 31.88 852.129 31.7933 851.955 31.62C851.795 31.4333 851.715 31.1733 851.715 30.84C851.715 30.7333 851.762 30.6067 851.855 30.46C851.962 30.3 852.089 30.16 852.235 30.04C852.395 29.9067 852.562 29.84 852.735 29.84C853.309 29.7867 853.862 29.7333 854.395 29.68C854.942 29.6267 855.462 29.5667 855.955 29.5C856.875 27.9267 857.769 26.1067 858.635 24.04C859.009 22.9867 859.395 22.1467 859.795 21.52C860.209 20.88 860.635 20.56 861.075 20.56C861.302 20.56 861.509 20.6533 861.695 20.84C861.895 21.0133 861.995 21.2933 861.995 21.68C861.995 21.8533 861.895 22.2867 861.695 22.98C861.509 23.66 861.255 24.52 860.935 25.56C860.615 26.6 860.269 27.7333 859.895 28.96C862.042 28.6133 863.702 28.3 864.875 28.02C866.049 27.7267 866.789 27.58 867.095 27.58C867.375 27.58 867.595 27.6733 867.755 27.86C867.915 28.0467 867.995 28.2533 867.995 28.48ZM845.475 32.22C845.995 31.94 846.495 31.62 846.975 31.26C847.455 30.8867 847.849 30.5133 848.155 30.14C848.462 29.7533 848.615 29.3867 848.615 29.04C848.615 28.7333 848.555 28.5133 848.435 28.38C848.329 28.2467 848.109 28.18 847.775 28.18C847.482 28.18 847.189 28.3733 846.895 28.76C846.602 29.1467 846.329 29.6533 846.075 30.28C845.835 30.8933 845.635 31.54 845.475 32.22ZM869.546 38.56C868.799 38.56 868.153 38.3867 867.606 38.04C867.059 37.7067 866.639 37.2733 866.346 36.74C866.053 36.1933 865.906 35.6333 865.906 35.06C865.906 34.1 866.053 33.2133 866.346 32.4C866.639 31.5733 867.026 30.8267 867.506 30.16C867.986 29.48 868.506 28.88 869.066 28.36C869.639 27.84 870.193 27.4067 870.726 27.06C871.273 26.7 871.759 26.4333 872.186 26.26C872.613 26.0733 872.926 25.98 873.126 25.98C873.486 25.98 873.739 26.06 873.886 26.22C874.046 26.3667 874.126 26.6133 874.126 26.96C874.126 27.16 873.979 27.4 873.686 27.68C873.406 27.96 873.033 28.28 872.566 28.64C872.113 29 871.633 29.4067 871.126 29.86C870.619 30.3133 870.133 30.82 869.666 31.38C869.213 31.94 868.839 32.5533 868.546 33.22C868.266 33.8867 868.126 34.6133 868.126 35.4C868.126 35.6933 868.179 35.92 868.286 36.08C868.406 36.24 868.599 36.32 868.866 36.32C869.626 36.32 870.439 36.1867 871.306 35.92C872.186 35.64 873.059 35.2933 873.926 34.88C874.806 34.4533 875.633 34.0133 876.406 33.56C877.193 33.1067 877.866 32.7 878.426 32.34C878.653 32.18 878.846 32.0533 879.006 31.96C879.166 31.8667 879.279 31.82 879.346 31.82C879.746 31.82 879.946 32.0267 879.946 32.44C879.946 32.6533 879.786 32.94 879.466 33.3C879.093 33.7667 878.586 34.2467 877.946 34.74C877.319 35.2333 876.619 35.7067 875.846 36.16C875.086 36.6133 874.306 37.02 873.506 37.38C872.719 37.74 871.979 38.0267 871.286 38.24C870.593 38.4533 870.013 38.56 869.546 38.56ZM882.686 33.44C882.5 33.44 882.333 33.3667 882.186 33.22C882.053 33.06 881.986 32.7733 881.986 32.36C881.986 32.0667 882.04 31.6067 882.146 30.98C882.253 30.3533 882.4 29.6333 882.586 28.82C882.786 27.9933 883.013 27.1333 883.266 26.24C883.52 25.3333 883.793 24.4467 884.086 23.58C884.38 22.7 884.68 21.9067 884.986 21.2C885.133 20.8533 885.36 20.5933 885.666 20.42C885.986 20.2333 886.333 20.14 886.706 20.14C887.093 20.14 887.373 20.32 887.546 20.68C887.72 21.04 887.806 21.4333 887.806 21.86C887.806 22.02 887.726 22.32 887.566 22.76C887.42 23.2 887.22 23.7333 886.966 24.36C886.713 24.9867 886.433 25.6667 886.126 26.4C885.833 27.12 885.533 27.8533 885.226 28.6C884.933 29.3333 884.66 30.0333 884.406 30.7C884.153 31.3667 883.946 31.9533 883.786 32.46C883.68 32.82 883.533 33.0733 883.346 33.22C883.173 33.3667 882.953 33.44 882.686 33.44ZM881.646 39.02C881.486 39.02 881.3 38.98 881.086 38.9C880.873 38.82 880.686 38.6267 880.526 38.32C880.38 38.0267 880.306 37.5533 880.306 36.9C880.306 36.3933 880.466 36.0067 880.786 35.74C881.106 35.4733 881.533 35.34 882.066 35.34C882.52 35.34 882.866 35.4667 883.106 35.72C883.36 35.9733 883.486 36.3333 883.486 36.8C883.486 37.2267 883.38 37.6067 883.166 37.94C882.966 38.2733 882.72 38.5333 882.426 38.72C882.146 38.92 881.886 39.02 881.646 39.02Z" fill="#FF0000"/>
<path d="M11.1094 14.311C12.3506 12.761 14.8394 9.43958 17.3889 6.0589C18.014 5.23002 18.7876 4.65548 19.5704 4.95488C22.2307 8.68797 23.1632 11.5977 24.0972 13.6202C24.5167 14.6135 24.8255 15.5398 25.1436 16.806" stroke="#FF0000" stroke-width="3" stroke-linecap="round"/>
<path d="M20.1538 5.57861C20.1538 6.60779 19.5363 10.4313 18.6007 18.9205C17.2644 31.0453 17.7755 35.1627 18.6004 35.9954C20.0501 37.4588 24.5443 37.0823 31 35.9954C35.8893 35.1722 43.7936 36.4726 51.9459 35.9954C76.6991 35.2095 83.1209 36.2542 86.5 35.9954" stroke="#FF0000" stroke-width="3" stroke-linecap="round"/>
</svg>
