<svg width="512" height="512" viewBox="0 0 512 512" fill="none" xmlns="http://www.w3.org/2000/svg">
<path d="M240 28C372.548 28 480 135.452 480 268C480 400.548 372.548 508 240 508C107.452 508 0 400.548 0 268C0 135.452 107.452 28 240 28ZM240 208C204.654 208 176 236.654 176 272C176 307.346 204.654 336 240 336C275.346 336 304 307.346 304 272C304 236.654 275.346 208 240 208Z" fill="#C0C0C0"/>
<mask id="mask0_22_53" style="mask-type:alpha" maskUnits="userSpaceOnUse" x="0" y="28" width="480" height="480">
<mask id="path-2-inside-1_22_53" fill="white">
<path d="M240 28C372.548 28 480 135.452 480 268C480 400.548 372.548 508 240 508C107.452 508 0 400.548 0 268C0 135.452 107.452 28 240 28ZM240 208C204.654 208 176 236.654 176 272C176 307.346 204.654 336 240 336C275.346 336 304 307.346 304 272C304 236.654 275.346 208 240 208Z"/>
</mask>
<path d="M240 28C372.548 28 480 135.452 480 268C480 400.548 372.548 508 240 508C107.452 508 0 400.548 0 268C0 135.452 107.452 28 240 28ZM240 208C204.654 208 176 236.654 176 272C176 307.346 204.654 336 240 336C275.346 336 304 307.346 304 272C304 236.654 275.346 208 240 208Z" fill="#D9D9D9"/>
<path d="M240 28V44C363.712 44 464 144.288 464 268H480H496C496 126.615 381.385 12 240 12V28ZM480 268H464C464 391.712 363.712 492 240 492V508V524C381.385 524 496 409.385 496 268H480ZM240 508V492C116.288 492 16 391.712 16 268H0H-16C-16 409.385 98.6151 524 240 524V508ZM0 268H16C16 144.288 116.288 44 240 44V28V12C98.6151 12 -16 126.615 -16 268H0ZM240 208V192C195.817 192 160 227.817 160 272H176H192C192 245.49 213.49 224 240 224V208ZM176 272H160C160 316.183 195.817 352 240 352V336V320C213.49 320 192 298.51 192 272H176ZM240 336V352C284.183 352 320 316.183 320 272H304H288C288 298.51 266.51 320 240 320V336ZM304 272H320C320 227.817 284.183 192 240 192V208V224C266.51 224 288 245.49 288 272H304Z" fill="black" fill-opacity="0.44" mask="url(#path-2-inside-1_22_53)"/>
</mask>
<g mask="url(#mask0_22_53)">
<rect x="127.052" y="56" width="473.302" height="103.195" transform="rotate(50 127.052 56)" fill="white" fill-opacity="0.27"/>
<path d="M148.724 -232L616 324.878L536.948 391.211L69.6718 -165.668L148.724 -232Z" fill="white" fill-opacity="0.27"/>
</g>
<mask id="path-6-inside-2_22_53" fill="white">
<path d="M240 28C372.548 28 480 135.452 480 268C480 400.548 372.548 508 240 508C107.452 508 0 400.548 0 268C0 135.452 107.452 28 240 28ZM240 208C204.654 208 176 236.654 176 272C176 307.346 204.654 336 240 336C275.346 336 304 307.346 304 272C304 236.654 275.346 208 240 208Z"/>
</mask>
<path d="M240 28V44C363.712 44 464 144.288 464 268H480H496C496 126.615 381.385 12 240 12V28ZM480 268H464C464 391.712 363.712 492 240 492V508V524C381.385 524 496 409.385 496 268H480ZM240 508V492C116.288 492 16 391.712 16 268H0H-16C-16 409.385 98.6151 524 240 524V508ZM0 268H16C16 144.288 116.288 44 240 44V28V12C98.6151 12 -16 126.615 -16 268H0ZM240 208V192C195.817 192 160 227.817 160 272H176H192C192 245.49 213.49 224 240 224V208ZM176 272H160C160 316.183 195.817 352 240 352V336V320C213.49 320 192 298.51 192 272H176ZM240 336V352C284.183 352 320 316.183 320 272H304H288C288 298.51 266.51 320 240 320V336ZM304 272H320C320 227.817 284.183 192 240 192V208V224C266.51 224 288 245.49 288 272H304Z" fill="black" fill-opacity="0.44" mask="url(#path-6-inside-2_22_53)"/>
<path d="M364.608 5.08371C371.239 0.625097 379.654 -0.241311 387.054 2.77316L495.054 46.7732C504.091 50.4548 510 59.2418 510 68.9997V252H509.591C508.724 266.015 500.342 280.411 486.123 289.645C464.197 303.884 436.701 300.46 424.711 281.996C412.72 263.532 420.775 237.021 442.701 222.782C448.851 218.788 455.439 216.184 462 214.912V85.1374L402 60.6921V187H401.417C399.914 200.371 391.667 213.85 378.123 222.645C356.197 236.884 328.701 233.459 316.711 214.995C304.721 196.531 312.775 170.021 334.701 155.782C340.851 151.788 347.439 149.184 354 147.912V24.9997L354.011 24.2527C354.251 16.5456 358.184 9.40322 364.608 5.08371Z" fill="black"/>
<path d="M364.608 5.08371C371.239 0.625097 379.654 -0.241311 387.054 2.77316L495.054 46.7732C504.091 50.4548 510 59.2418 510 68.9997V252H509.591C508.724 266.015 500.342 280.411 486.123 289.645C464.197 303.884 436.701 300.46 424.711 281.996C412.72 263.532 420.775 237.021 442.701 222.782C448.851 218.788 455.439 216.184 462 214.912V85.1374L402 60.6921V187H401.417C399.914 200.371 391.667 213.85 378.123 222.645C356.197 236.884 328.701 233.459 316.711 214.995C304.721 196.531 312.775 170.021 334.701 155.782C340.851 151.788 347.439 149.184 354 147.912V24.9997L354.011 24.2527C354.251 16.5456 358.184 9.40322 364.608 5.08371Z" fill="url(#paint0_linear_22_53)"/>
<defs>
<linearGradient id="paint0_linear_22_53" x1="410.471" y1="-10.2652" x2="410.471" y2="286.063" gradientUnits="userSpaceOnUse">
<stop stop-color="#D942FF"/>
<stop offset="1" stop-color="#FF8000"/>
</linearGradient>
</defs>
</svg>
